<svg xmlns="http://www.w3.org/2000/svg" viewBox="0 0 1000 1000" width="1000" height="1000"><defs><linearGradient id="bg" x1="0" y1="0" x2="0" y2="1"><stop offset="0" stop-color="#0a1f1c"/><stop offset="1" stop-color="#123a2e"/></linearGradient><radialGradient id="glow"><stop offset="0" stop-color="#ffffff" stop-opacity="0.28"/><stop offset="1" stop-color="#ffffff" stop-opacity="0"/></radialGradient></defs><rect width="1000" height="1000" fill="url(#bg)"/><path d="M446.5,771.3 Q442.3,773.5 436.5,771.1" stroke="#9fd8ff" stroke-width="2.71" fill="none" stroke-linecap="round" opacity="0.75"/><path d="M446.5,771.3 Q450.7,771.4 455.1,766.2" stroke="#9fd8ff" stroke-width="2.61" fill="none" stroke-linecap="round" opacity="0.98"/><path d="M444.2,762.0 Q436.1,766.1 424.8,760.2" stroke="#2f7fc0" stroke-width="2.89" fill="none" stroke-linecap="round" opacity="0.89"/><path d="M444.2,762.0 Q452.2,762.3 460.8,752.8" stroke="#5fb2f0" stroke-width="3.62" fill="none" stroke-linecap="round" opacity="0.88"/><path d="M441.9,752.7 Q430.5,758.4 413.9,747.6" stroke="#5fb2f0" stroke-width="3.33" fill="none" stroke-linecap="round" opacity="0.98"/><path d="M441.9,752.7 Q453.4,753.2 464.8,735.5" stroke="#9fd8ff" stroke-width="2.30" fill="none" stroke-linecap="round" opacity="0.94"/><path d="M439.8,743.3 Q425.1,750.6 404.0,735.9" stroke="#5fb2f0" stroke-width="2.81" fill="none" stroke-linecap="round" opacity="0.99"/><path d="M439.8,743.3 Q454.4,744.1 469.3,722.6" stroke="#2f7fc0" stroke-width="3.60" fill="none" stroke-linecap="round" opacity="0.86"/><path d="M437.7,734.0 Q420.1,742.5 395.1,726.1" stroke="#5fb2f0" stroke-width="2.54" fill="none" stroke-linecap="round" opacity="0.93"/><path d="M437.7,734.0 Q455.3,735.1 473.5,709.7" stroke="#9fd8ff" stroke-width="2.84" fill="none" stroke-linecap="round" opacity="0.89"/><path d="M435.7,724.7 Q415.3,734.4 387.7,721.1" stroke="#9fd8ff" stroke-width="3.33" fill="none" stroke-linecap="round" opacity="0.76"/><path d="M435.7,724.7 Q456.2,726.1 478.9,703.6" stroke="#2f7fc0" stroke-width="2.50" fill="none" stroke-linecap="round" opacity="0.78"/><path d="M433.9,715.3 Q410.6,726.1 379.4,710.3" stroke="#9fd8ff" stroke-width="3.46" fill="none" stroke-linecap="round" opacity="0.78"/><path d="M433.9,715.3 Q457.1,717.2 482.5,689.9" stroke="#2f7fc0" stroke-width="2.84" fill="none" stroke-linecap="round" opacity="0.95"/><path d="M432.1,706.0 Q406.2,717.7 371.7,700.7" stroke="#9fd8ff" stroke-width="3.15" fill="none" stroke-linecap="round" opacity="0.98"/><path d="M432.1,706.0 Q457.9,708.3 485.2,671.7" stroke="#9fd8ff" stroke-width="3.27" fill="none" stroke-linecap="round" opacity="0.90"/><path d="M430.4,696.7 Q402.0,709.2 363.4,685.1" stroke="#5fb2f0" stroke-width="3.25" fill="none" stroke-linecap="round" opacity="0.89"/><path d="M430.4,696.7 Q458.8,699.5 489.5,662.8" stroke="#5fb2f0" stroke-width="3.18" fill="none" stroke-linecap="round" opacity="0.79"/><path d="M428.8,687.3 Q397.9,700.7 356.3,674.1" stroke="#5fb2f0" stroke-width="3.06" fill="none" stroke-linecap="round" opacity="0.81"/><path d="M428.8,687.3 Q459.6,690.7 492.8,648.2" stroke="#5fb2f0" stroke-width="3.79" fill="none" stroke-linecap="round" opacity="0.97"/><path d="M427.3,678.0 Q394.1,692.0 350.2,667.1" stroke="#2f7fc0" stroke-width="3.03" fill="none" stroke-linecap="round" opacity="0.84"/><path d="M427.3,678.0 Q460.5,681.9 496.1,634.5" stroke="#9fd8ff" stroke-width="3.64" fill="none" stroke-linecap="round" opacity="0.99"/><path d="M425.9,668.7 Q390.4,683.3 344.2,659.6" stroke="#5fb2f0" stroke-width="3.12" fill="none" stroke-linecap="round" opacity="0.87"/><path d="M425.9,668.7 Q461.3,673.2 501.7,637.0" stroke="#5fb2f0" stroke-width="3.15" fill="none" stroke-linecap="round" opacity="0.99"/><path d="M424.5,659.3 Q386.9,674.4 337.9,647.5" stroke="#9fd8ff" stroke-width="2.43" fill="none" stroke-linecap="round" opacity="0.86"/><path d="M424.5,659.3 Q462.1,664.5 503.6,614.6" stroke="#2f7fc0" stroke-width="3.04" fill="none" stroke-linecap="round" opacity="0.76"/><path d="M423.3,650.0 Q383.6,665.5 330.7,625.4" stroke="#2f7fc0" stroke-width="3.31" fill="none" stroke-linecap="round" opacity="0.82"/><path d="M423.3,650.0 Q463.0,655.8 507.8,609.7" stroke="#9fd8ff" stroke-width="2.57" fill="none" stroke-linecap="round" opacity="0.85"/><path d="M422.1,640.7 Q380.5,656.6 325.9,619.2" stroke="#9fd8ff" stroke-width="3.57" fill="none" stroke-linecap="round" opacity="0.88"/><path d="M422.1,640.7 Q463.8,647.1 510.6,593.9" stroke="#2f7fc0" stroke-width="3.70" fill="none" stroke-linecap="round" opacity="0.81"/><path d="M421.1,631.3 Q377.5,647.5 321.2,611.2" stroke="#5fb2f0" stroke-width="2.97" fill="none" stroke-linecap="round" opacity="0.84"/><path d="M421.1,631.3 Q464.6,638.5 513.7,581.5" stroke="#9fd8ff" stroke-width="3.26" fill="none" stroke-linecap="round" opacity="0.91"/><path d="M420.1,622.0 Q374.7,638.4 316.9,606.0" stroke="#5fb2f0" stroke-width="2.96" fill="none" stroke-linecap="round" opacity="0.98"/><path d="M420.1,622.0 Q465.5,629.9 518.2,583.7" stroke="#5fb2f0" stroke-width="2.33" fill="none" stroke-linecap="round" opacity="0.82"/><path d="M419.2,612.7 Q372.2,629.2 311.0,577.7" stroke="#5fb2f0" stroke-width="2.99" fill="none" stroke-linecap="round" opacity="0.89"/><path d="M419.2,612.7 Q466.3,621.3 520.1,559.9" stroke="#5fb2f0" stroke-width="3.45" fill="none" stroke-linecap="round" opacity="0.80"/><path d="M418.4,603.3 Q369.8,620.0 307.0,567.2" stroke="#2f7fc0" stroke-width="2.54" fill="none" stroke-linecap="round" opacity="0.99"/><path d="M418.4,603.3 Q467.1,612.7 524.1,561.9" stroke="#2f7fc0" stroke-width="3.40" fill="none" stroke-linecap="round" opacity="0.95"/><path d="M417.7,594.0 Q367.6,610.7 304.0,567.7" stroke="#2f7fc0" stroke-width="3.25" fill="none" stroke-linecap="round" opacity="0.79"/><path d="M417.7,594.0 Q467.9,604.2 526.3,540.0" stroke="#2f7fc0" stroke-width="3.57" fill="none" stroke-linecap="round" opacity="0.78"/><path d="M417.1,584.7 Q365.5,601.3 300.3,551.2" stroke="#5fb2f0" stroke-width="2.97" fill="none" stroke-linecap="round" opacity="0.81"/><path d="M417.1,584.7 Q468.7,595.6 529.7,540.4" stroke="#5fb2f0" stroke-width="3.56" fill="none" stroke-linecap="round" opacity="0.97"/><path d="M416.6,575.3 Q363.7,591.9 296.7,528.5" stroke="#5fb2f0" stroke-width="2.82" fill="none" stroke-linecap="round" opacity="0.95"/><path d="M416.6,575.3 Q469.6,587.1 532.6,533.8" stroke="#2f7fc0" stroke-width="2.69" fill="none" stroke-linecap="round" opacity="0.87"/><path d="M416.2,566.0 Q362.1,582.4 294.1,518.4" stroke="#9fd8ff" stroke-width="3.79" fill="none" stroke-linecap="round" opacity="0.83"/><path d="M416.2,566.0 Q470.3,578.5 535.2,525.0" stroke="#9fd8ff" stroke-width="3.65" fill="none" stroke-linecap="round" opacity="0.79"/><path d="M415.9,556.7 Q360.6,572.8 292.1,521.8" stroke="#5fb2f0" stroke-width="3.32" fill="none" stroke-linecap="round" opacity="0.94"/><path d="M415.9,556.7 Q471.1,570.0 537.5,506.9" stroke="#5fb2f0" stroke-width="2.55" fill="none" stroke-linecap="round" opacity="0.76"/><path d="M415.6,547.3 Q359.4,563.2 290.0,508.8" stroke="#2f7fc0" stroke-width="3.25" fill="none" stroke-linecap="round" opacity="0.92"/><path d="M415.6,547.3 Q471.9,561.4 540.1,512.0" stroke="#9fd8ff" stroke-width="2.88" fill="none" stroke-linecap="round" opacity="0.81"/><path d="M415.5,538.0 Q358.3,553.6 288.1,487.0" stroke="#9fd8ff" stroke-width="2.93" fill="none" stroke-linecap="round" opacity="0.87"/><path d="M415.5,538.0 Q472.7,552.9 542.2,484.4" stroke="#5fb2f0" stroke-width="2.30" fill="none" stroke-linecap="round" opacity="1.00"/><path d="M415.4,528.7 Q357.5,543.9 286.8,481.9" stroke="#9fd8ff" stroke-width="2.64" fill="none" stroke-linecap="round" opacity="0.91"/><path d="M415.4,528.7 Q473.4,544.3 544.4,494.5" stroke="#9fd8ff" stroke-width="2.36" fill="none" stroke-linecap="round" opacity="0.91"/><path d="M415.5,519.3 Q356.8,534.2 285.7,469.8" stroke="#9fd8ff" stroke-width="3.21" fill="none" stroke-linecap="round" opacity="0.84"/><path d="M415.5,519.3 Q474.1,535.8 546.4,474.6" stroke="#2f7fc0" stroke-width="2.22" fill="none" stroke-linecap="round" opacity="0.94"/><path d="M415.6,510.0 Q356.3,524.5 285.1,452.2" stroke="#5fb2f0" stroke-width="3.77" fill="none" stroke-linecap="round" opacity="0.76"/><path d="M415.6,510.0 Q474.8,527.2 548.6,456.2" stroke="#5fb2f0" stroke-width="2.47" fill="none" stroke-linecap="round" opacity="0.79"/><path d="M415.8,500.7 Q356.1,514.7 284.9,439.6" stroke="#5fb2f0" stroke-width="3.41" fill="none" stroke-linecap="round" opacity="0.91"/><path d="M415.8,500.7 Q475.5,518.6 550.2,455.3" stroke="#9fd8ff" stroke-width="2.63" fill="none" stroke-linecap="round" opacity="0.80"/><path d="M416.1,491.3 Q356.0,504.8 284.2,446.2" stroke="#2f7fc0" stroke-width="3.58" fill="none" stroke-linecap="round" opacity="0.81"/><path d="M416.1,491.3 Q476.2,509.9 551.8,446.0" stroke="#2f7fc0" stroke-width="3.35" fill="none" stroke-linecap="round" opacity="0.84"/><path d="M416.5,482.0 Q356.1,495.0 284.9,425.3" stroke="#5fb2f0" stroke-width="3.16" fill="none" stroke-linecap="round" opacity="0.87"/><path d="M416.5,482.0 Q476.9,501.3 553.2,440.6" stroke="#9fd8ff" stroke-width="3.44" fill="none" stroke-linecap="round" opacity="0.75"/><path d="M417.0,472.7 Q356.4,485.1 285.7,412.2" stroke="#5fb2f0" stroke-width="3.36" fill="none" stroke-linecap="round" opacity="0.97"/><path d="M417.0,472.7 Q477.5,492.6 554.5,432.9" stroke="#9fd8ff" stroke-width="2.55" fill="none" stroke-linecap="round" opacity="0.97"/><path d="M417.6,463.3 Q357.0,475.2 286.0,410.2" stroke="#9fd8ff" stroke-width="3.17" fill="none" stroke-linecap="round" opacity="0.99"/><path d="M417.6,463.3 Q478.1,483.9 556.1,419.0" stroke="#5fb2f0" stroke-width="3.77" fill="none" stroke-linecap="round" opacity="0.76"/><path d="M418.2,454.0 Q357.7,465.3 286.9,403.8" stroke="#5fb2f0" stroke-width="2.76" fill="none" stroke-linecap="round" opacity="0.78"/><path d="M418.2,454.0 Q478.8,475.1 556.1,423.6" stroke="#9fd8ff" stroke-width="3.06" fill="none" stroke-linecap="round" opacity="0.95"/><path d="M419.0,444.7 Q358.6,455.3 288.7,389.7" stroke="#5fb2f0" stroke-width="3.61" fill="none" stroke-linecap="round" opacity="0.85"/><path d="M419.0,444.7 Q479.3,466.3 557.0,414.5" stroke="#5fb2f0" stroke-width="2.58" fill="none" stroke-linecap="round" opacity="0.86"/><path d="M419.8,435.3 Q359.7,445.4 289.8,387.0" stroke="#5fb2f0" stroke-width="3.49" fill="none" stroke-linecap="round" opacity="0.87"/><path d="M419.8,435.3 Q479.9,457.5 557.2,410.3" stroke="#2f7fc0" stroke-width="2.89" fill="none" stroke-linecap="round" opacity="0.97"/><path d="M420.8,426.0 Q361.1,435.4 293.5,362.7" stroke="#9fd8ff" stroke-width="2.69" fill="none" stroke-linecap="round" opacity="0.88"/><path d="M420.8,426.0 Q480.5,448.6 557.9,400.5" stroke="#5fb2f0" stroke-width="2.39" fill="none" stroke-linecap="round" opacity="1.00"/><path d="M421.8,416.7 Q362.6,425.5 295.4,357.3" stroke="#9fd8ff" stroke-width="2.77" fill="none" stroke-linecap="round" opacity="0.88"/><path d="M421.8,416.7 Q481.0,439.7 560.4,374.0" stroke="#9fd8ff" stroke-width="3.56" fill="none" stroke-linecap="round" opacity="0.92"/><path d="M422.9,407.3 Q364.3,415.5 298.8,342.6" stroke="#2f7fc0" stroke-width="3.57" fill="none" stroke-linecap="round" opacity="0.97"/><path d="M422.9,407.3 Q481.6,430.7 558.8,381.1" stroke="#2f7fc0" stroke-width="3.42" fill="none" stroke-linecap="round" opacity="0.83"/><path d="M424.1,398.0 Q366.2,405.5 301.0,339.5" stroke="#9fd8ff" stroke-width="2.91" fill="none" stroke-linecap="round" opacity="0.80"/><path d="M424.1,398.0 Q482.1,421.7 560.4,362.5" stroke="#9fd8ff" stroke-width="3.65" fill="none" stroke-linecap="round" opacity="0.94"/><path d="M425.4,388.7 Q368.3,395.5 305.4,323.6" stroke="#9fd8ff" stroke-width="3.15" fill="none" stroke-linecap="round" opacity="0.99"/><path d="M425.4,388.7 Q482.6,412.6 560.4,354.4" stroke="#5fb2f0" stroke-width="3.49" fill="none" stroke-linecap="round" opacity="0.79"/><path d="M426.8,379.3 Q370.6,385.6 309.1,313.8" stroke="#5fb2f0" stroke-width="3.70" fill="none" stroke-linecap="round" opacity="0.90"/><path d="M426.8,379.3 Q483.1,403.5 560.6,343.8" stroke="#2f7fc0" stroke-width="3.33" fill="none" stroke-linecap="round" opacity="0.79"/><path d="M428.3,370.0 Q373.1,375.6 314.2,298.0" stroke="#9fd8ff" stroke-width="2.73" fill="none" stroke-linecap="round" opacity="0.83"/><path d="M428.3,370.0 Q483.6,394.3 557.6,351.9" stroke="#2f7fc0" stroke-width="2.38" fill="none" stroke-linecap="round" opacity="0.83"/><path d="M429.9,360.7 Q375.8,365.7 316.5,300.6" stroke="#2f7fc0" stroke-width="2.94" fill="none" stroke-linecap="round" opacity="0.80"/><path d="M429.9,360.7 Q484.0,385.0 556.8,344.8" stroke="#2f7fc0" stroke-width="2.40" fill="none" stroke-linecap="round" opacity="0.81"/><path d="M431.6,351.3 Q378.6,355.7 322.8,282.3" stroke="#9fd8ff" stroke-width="3.02" fill="none" stroke-linecap="round" opacity="0.78"/><path d="M431.6,351.3 Q484.5,375.7 558.8,322.7" stroke="#9fd8ff" stroke-width="3.23" fill="none" stroke-linecap="round" opacity="0.97"/><path d="M433.3,342.0 Q381.7,345.8 326.5,279.2" stroke="#2f7fc0" stroke-width="3.21" fill="none" stroke-linecap="round" opacity="0.94"/><path d="M433.3,342.0 Q485.0,366.3 556.2,323.5" stroke="#9fd8ff" stroke-width="2.23" fill="none" stroke-linecap="round" opacity="0.88"/><path d="M435.2,332.7 Q384.9,335.9 332.9,264.2" stroke="#5fb2f0" stroke-width="2.80" fill="none" stroke-linecap="round" opacity="0.80"/><path d="M435.2,332.7 Q485.4,356.8 556.7,308.3" stroke="#5fb2f0" stroke-width="3.02" fill="none" stroke-linecap="round" opacity="0.96"/><path d="M437.1,323.3 Q388.3,326.0 339.3,251.2" stroke="#9fd8ff" stroke-width="2.39" fill="none" stroke-linecap="round" opacity="0.82"/><path d="M437.1,323.3 Q485.9,347.2 552.9,312.6" stroke="#5fb2f0" stroke-width="3.14" fill="none" stroke-linecap="round" opacity="0.82"/><path d="M439.1,314.0 Q391.9,316.2 342.7,253.0" stroke="#2f7fc0" stroke-width="3.59" fill="none" stroke-linecap="round" opacity="0.80"/><path d="M439.1,314.0 Q486.3,337.6 553.5,296.2" stroke="#2f7fc0" stroke-width="2.50" fill="none" stroke-linecap="round" opacity="0.81"/><path d="M441.3,304.7 Q395.7,306.4 346.6,253.2" stroke="#2f7fc0" stroke-width="2.26" fill="none" stroke-linecap="round" opacity="0.82"/><path d="M441.3,304.7 Q486.8,327.9 549.7,298.0" stroke="#2f7fc0" stroke-width="2.27" fill="none" stroke-linecap="round" opacity="0.99"/><path d="M443.5,295.3 Q399.7,296.6 354.4,238.0" stroke="#2f7fc0" stroke-width="2.45" fill="none" stroke-linecap="round" opacity="0.97"/><path d="M443.5,295.3 Q487.3,318.2 550.8,278.5" stroke="#5fb2f0" stroke-width="2.54" fill="none" stroke-linecap="round" opacity="0.92"/><path d="M445.8,286.0 Q403.8,286.8 358.9,237.2" stroke="#5fb2f0" stroke-width="2.83" fill="none" stroke-linecap="round" opacity="0.91"/><path d="M445.8,286.0 Q487.7,308.3 549.2,270.2" stroke="#2f7fc0" stroke-width="3.55" fill="none" stroke-linecap="round" opacity="0.93"/><path d="M448.2,276.7 Q408.1,277.1 369.8,213.4" stroke="#5fb2f0" stroke-width="2.69" fill="none" stroke-linecap="round" opacity="0.75"/><path d="M448.2,276.7 Q488.2,298.4 543.0,278.1" stroke="#2f7fc0" stroke-width="3.68" fill="none" stroke-linecap="round" opacity="0.93"/><path d="M450.7,267.3 Q412.6,267.4 372.7,220.3" stroke="#5fb2f0" stroke-width="3.56" fill="none" stroke-linecap="round" opacity="0.91"/><path d="M450.7,267.3 Q488.7,288.3 544.2,257.9" stroke="#2f7fc0" stroke-width="2.90" fill="none" stroke-linecap="round" opacity="0.85"/><path d="M453.2,258.0 Q417.3,257.7 382.4,203.5" stroke="#2f7fc0" stroke-width="3.68" fill="none" stroke-linecap="round" opacity="0.84"/><path d="M453.2,258.0 Q489.2,278.2 543.3,245.2" stroke="#5fb2f0" stroke-width="3.31" fill="none" stroke-linecap="round" opacity="0.80"/><path d="M455.9,248.7 Q422.1,248.1 387.7,203.4" stroke="#2f7fc0" stroke-width="3.70" fill="none" stroke-linecap="round" opacity="0.99"/><path d="M455.9,248.7 Q489.7,268.0 540.6,238.1" stroke="#2f7fc0" stroke-width="3.15" fill="none" stroke-linecap="round" opacity="0.83"/><path d="M458.7,239.3 Q427.1,238.5 397.4,189.1" stroke="#5fb2f0" stroke-width="2.89" fill="none" stroke-linecap="round" opacity="0.91"/><path d="M458.7,239.3 Q490.2,257.7 537.5,231.8" stroke="#9fd8ff" stroke-width="2.87" fill="none" stroke-linecap="round" opacity="0.79"/><path d="M461.5,230.0 Q432.3,229.0 402.7,190.2" stroke="#5fb2f0" stroke-width="2.76" fill="none" stroke-linecap="round" opacity="0.99"/><path d="M461.5,230.0 Q490.7,247.4 535.4,221.9" stroke="#2f7fc0" stroke-width="3.33" fill="none" stroke-linecap="round" opacity="0.83"/><path d="M464.4,220.7 Q437.7,219.5 413.3,175.5" stroke="#9fd8ff" stroke-width="3.41" fill="none" stroke-linecap="round" opacity="0.82"/><path d="M464.4,220.7 Q491.2,236.9 530.9,218.6" stroke="#9fd8ff" stroke-width="2.31" fill="none" stroke-linecap="round" opacity="0.77"/><path d="M467.5,211.3 Q443.2,210.0 420.4,172.8" stroke="#2f7fc0" stroke-width="2.88" fill="none" stroke-linecap="round" opacity="0.77"/><path d="M467.5,211.3 Q491.7,226.3 526.8,213.2" stroke="#9fd8ff" stroke-width="2.62" fill="none" stroke-linecap="round" opacity="0.76"/><path d="M470.6,202.0 Q448.9,200.7 429.7,164.1" stroke="#9fd8ff" stroke-width="3.37" fill="none" stroke-linecap="round" opacity="0.94"/><path d="M470.6,202.0 Q492.3,215.6 525.8,198.0" stroke="#2f7fc0" stroke-width="3.58" fill="none" stroke-linecap="round" opacity="0.86"/><path d="M473.8,192.7 Q454.8,191.3 438.3,158.9" stroke="#5fb2f0" stroke-width="3.29" fill="none" stroke-linecap="round" opacity="0.75"/><path d="M473.8,192.7 Q492.8,204.8 519.9,196.6" stroke="#9fd8ff" stroke-width="3.64" fill="none" stroke-linecap="round" opacity="0.96"/><path d="M477.1,183.3 Q460.9,182.0 445.1,159.3" stroke="#9fd8ff" stroke-width="3.11" fill="none" stroke-linecap="round" opacity="0.94"/><path d="M477.1,183.3 Q493.3,193.8 517.3,184.8" stroke="#2f7fc0" stroke-width="2.69" fill="none" stroke-linecap="round" opacity="0.76"/><path d="M480.5,174.0 Q467.2,172.8 454.6,153.4" stroke="#5fb2f0" stroke-width="3.52" fill="none" stroke-linecap="round" opacity="0.77"/><path d="M480.5,174.0 Q493.7,182.7 513.8,174.7" stroke="#9fd8ff" stroke-width="2.73" fill="none" stroke-linecap="round" opacity="0.83"/><path d="M484.0,164.7 Q473.8,163.7 465.3,145.9" stroke="#5fb2f0" stroke-width="2.35" fill="none" stroke-linecap="round" opacity="0.78"/><path d="M484.0,164.7 Q494.1,171.4 509.8,164.7" stroke="#2f7fc0" stroke-width="2.31" fill="none" stroke-linecap="round" opacity="0.77"/><path d="M487.6,155.3 Q480.8,154.6 474.1,145.3" stroke="#5fb2f0" stroke-width="3.08" fill="none" stroke-linecap="round" opacity="0.97"/><path d="M487.6,155.3 Q494.3,159.9 504.1,157.4" stroke="#5fb2f0" stroke-width="3.34" fill="none" stroke-linecap="round" opacity="0.97"/><path d="M491.2,146.0 Q488.3,145.7 485.5,141.5" stroke="#2f7fc0" stroke-width="3.59" fill="none" stroke-linecap="round" opacity="0.81"/><path d="M491.2,146.0 Q494.1,148.0 498.6,146.3" stroke="#5fb2f0" stroke-width="3.64" fill="none" stroke-linecap="round" opacity="1.00"/><path d="M500.0,930.0 L496.1,920.7 L492.3,911.3 L488.6,902.0 L485.0,892.7 L481.5,883.3 L478.1,874.0 L474.8,864.7 L471.5,855.3 L468.4,846.0 L465.3,836.7 L462.4,827.3 L459.5,818.0 L456.7,808.7 L454.0,799.3 L451.4,790.0 L448.9,780.7 L446.5,771.3 L444.2,762.0 L441.9,752.7 L439.8,743.3 L437.7,734.0 L435.7,724.7 L433.9,715.3 L432.1,706.0 L430.4,696.7 L428.8,687.3 L427.3,678.0 L425.9,668.7 L424.5,659.3 L423.3,650.0 L422.1,640.7 L421.1,631.3 L420.1,622.0 L419.2,612.7 L418.4,603.3 L417.7,594.0 L417.1,584.7 L416.6,575.3 L416.2,566.0 L415.9,556.7 L415.6,547.3 L415.5,538.0 L415.4,528.7 L415.5,519.3 L415.6,510.0 L415.8,500.7 L416.1,491.3 L416.5,482.0 L417.0,472.7 L417.6,463.3 L418.2,454.0 L419.0,444.7 L419.8,435.3 L420.8,426.0 L421.8,416.7 L422.9,407.3 L424.1,398.0 L425.4,388.7 L426.8,379.3 L428.3,370.0 L429.9,360.7 L431.6,351.3 L433.3,342.0 L435.2,332.7 L437.1,323.3 L439.1,314.0 L441.3,304.7 L443.5,295.3 L445.8,286.0 L448.2,276.7 L450.7,267.3 L453.2,258.0 L455.9,248.7 L458.7,239.3 L461.5,230.0 L464.4,220.7 L467.5,211.3 L470.6,202.0 L473.8,192.7 L477.1,183.3 L480.5,174.0 L484.0,164.7 L487.6,155.3 L491.2,146.0 L495.0,136.7 L498.8,127.3 L502.8,118.0 L506.8,108.7 L510.9,99.3 L515.1,90.0" stroke="#14141c" stroke-width="9" fill="none" stroke-linecap="round"/><path d="M500.0,930.0 L496.1,920.7 L492.3,911.3 L488.6,902.0 L485.0,892.7 L481.5,883.3 L478.1,874.0 L474.8,864.7 L471.5,855.3 L468.4,846.0 L465.3,836.7 L462.4,827.3 L459.5,818.0 L456.7,808.7 L454.0,799.3 L451.4,790.0 L448.9,780.7 L446.5,771.3 L444.2,762.0 L441.9,752.7 L439.8,743.3 L437.7,734.0 L435.7,724.7 L433.9,715.3 L432.1,706.0 L430.4,696.7 L428.8,687.3 L427.3,678.0 L425.9,668.7 L424.5,659.3 L423.3,650.0 L422.1,640.7 L421.1,631.3 L420.1,622.0 L419.2,612.7 L418.4,603.3 L417.7,594.0 L417.1,584.7 L416.6,575.3 L416.2,566.0 L415.9,556.7 L415.6,547.3 L415.5,538.0 L415.4,528.7 L415.5,519.3 L415.6,510.0 L415.8,500.7 L416.1,491.3 L416.5,482.0 L417.0,472.7 L417.6,463.3 L418.2,454.0 L419.0,444.7 L419.8,435.3 L420.8,426.0 L421.8,416.7 L422.9,407.3 L424.1,398.0 L425.4,388.7 L426.8,379.3 L428.3,370.0 L429.9,360.7 L431.6,351.3 L433.3,342.0 L435.2,332.7 L437.1,323.3 L439.1,314.0 L441.3,304.7 L443.5,295.3 L445.8,286.0 L448.2,276.7 L450.7,267.3 L453.2,258.0 L455.9,248.7 L458.7,239.3 L461.5,230.0 L464.4,220.7 L467.5,211.3 L470.6,202.0 L473.8,192.7 L477.1,183.3 L480.5,174.0 L484.0,164.7 L487.6,155.3 L491.2,146.0 L495.0,136.7 L498.8,127.3 L502.8,118.0 L506.8,108.7 L510.9,99.3 L515.1,90.0" stroke="#14141c" stroke-width="3.5" fill="none" opacity="0.5" transform="translate(2,0)"/><g><circle cx="485" cy="921" r="34" fill="#111522" stroke="#e8b923" stroke-width="2.5"/><text x="485" y="926" text-anchor="middle" font-family="monospace" font-size="15" font-weight="bold" fill="#e8b923">AMZN</text></g><text x="500" y="978" text-anchor="middle" font-family="monospace" font-size="17" fill="#8a8fa3">SUWAPPU FEATHERS · #0001 · CHAIN 4663</text></svg>