<svg xmlns="http://www.w3.org/2000/svg" width="1000" height="1000" viewBox="0 0 1000 1000" fill="none"><defs><radialGradient id="concept-26-seal-logo-body-grad" cx="34%" cy="28%" r="78%"><stop offset="0%" stop-color="#F6A63B" /><stop offset="55%" stop-color="#E26D2B" /><stop offset="100%" stop-color="#9F3515" /></radialGradient><linearGradient id="concept-26-seal-logo-leaf-grad" x1="0%" y1="0%" x2="100%" y2="100%"><stop offset="0%" stop-color="#8FBA61" /><stop offset="100%" stop-color="#3D6234" /></linearGradient><linearGradient id="concept-26-seal-logo-flesh-grad" x1="0%" y1="0%" x2="100%" y2="100%"><stop offset="0%" stop-color="#FFF2E0" /><stop offset="100%" stop-color="#ECCF9A" /></linearGradient><linearGradient id="concept-26-seal-logo-social-bg" x1="0%" y1="0%" x2="100%" y2="100%"><stop offset="0%" stop-color="#120F10" /><stop offset="100%" stop-color="#25191A" /></linearGradient><clipPath id="concept-26-seal-logo-body-clip"><path d="M 500 256 C 680 256 754 352 754 556 C 754 742 658 832 500 832 C 342 832 246 742 246 556 C 246 352 320 256 500 256 Z" /></clipPath></defs><rect x="190" y="210" width="620" height="660" rx="172" fill="#25191A" stroke="#4D2F2A" stroke-width="24" /><rect x="232" y="252" width="536" height="576" rx="138" fill="none" stroke="#FFF5EC" stroke-opacity="0.12" stroke-width="8" /><g transform="translate(0 24) scale(0.82 0.82) translate(110 96)"><ellipse cx="500" cy="860" rx="218" ry="44" fill="#160C0D" opacity="0.24" /><path d="M 500 256 C 680 256 754 352 754 556 C 754 742 658 832 500 832 C 342 832 246 742 246 556 C 246 352 320 256 500 256 Z" fill="url(#concept-26-seal-logo-body-grad)" stroke="#9F3515" stroke-width="12" /><ellipse cx="416" cy="448" rx="104" ry="128" fill="#FFF5EC" opacity="0.12" transform="rotate(-16 416 448)" /><path d="M 432 332 C 402 476 402 650 432 780" fill="none" stroke="#9F3515" stroke-opacity="0.18" stroke-width="14" stroke-linecap="round" /><path d="M 500 332 C 470 476 470 650 500 780" fill="none" stroke="#9F3515" stroke-opacity="0.18" stroke-width="14" stroke-linecap="round" /><path d="M 568 332 C 538 476 538 650 568 780" fill="none" stroke="#9F3515" stroke-opacity="0.18" stroke-width="14" stroke-linecap="round" /><path d="M 636 332 C 606 476 606 650 636 780" fill="none" stroke="#9F3515" stroke-opacity="0.18" stroke-width="14" stroke-linecap="round" /><path d="M 332 207 C 375.46 255.28 372.28 300.72 332 349 C 291.72 300.72 288.54 255.28 332 207 Z" fill="url(#concept-26-seal-logo-leaf-grad)" stroke="#120F10" stroke-width="10" transform="rotate(-45 332 278)" /><path d="M 416 199 C 459.46 247.28 456.28 292.72 416 341 C 375.72 292.72 372.54 247.28 416 199 Z" fill="url(#concept-26-seal-logo-leaf-grad)" stroke="#120F10" stroke-width="10" transform="rotate(-21 416 270)" /><path d="M 500 191 C 543.46 239.28 540.28 284.72 500 333 C 459.72 284.72 456.54 239.28 500 191 Z" fill="url(#concept-26-seal-logo-leaf-grad)" stroke="#120F10" stroke-width="10" transform="rotate(3 500 262)" /><path d="M 584 199 C 627.46 247.28 624.28 292.72 584 341 C 543.72 292.72 540.54 247.28 584 199 Z" fill="url(#concept-26-seal-logo-leaf-grad)" stroke="#120F10" stroke-width="10" transform="rotate(27 584 270)" /><path d="M 668 207 C 711.46 255.28 708.28 300.72 668 349 C 627.72 300.72 624.54 255.28 668 207 Z" fill="url(#concept-26-seal-logo-leaf-grad)" stroke="#120F10" stroke-width="10" transform="rotate(51 668 278)" /><path d="M 488 210 C 492 188 508 188 512 210 L 522 274 C 524 286 516 298 503 300 L 497 300 C 484 298 476 286 478 274 Z" fill="#593A20" stroke="#120F10" stroke-width="8" /><circle cx="500" cy="316" r="28" fill="#3D6234" stroke="#120F10" stroke-width="8" /></g></svg>