<svg xmlns="http://www.w3.org/2000/svg" width="1200" height="630" viewBox="0 0 1200 630" fill="none"><defs><radialGradient id="concept-07-orchard-social-body-grad" cx="34%" cy="28%" r="78%"><stop offset="0%" stop-color="#FF9F57" /><stop offset="55%" stop-color="#F85B1F" /><stop offset="100%" stop-color="#A92B12" /></radialGradient><linearGradient id="concept-07-orchard-social-leaf-grad" x1="0%" y1="0%" x2="100%" y2="100%"><stop offset="0%" stop-color="#74B46D" /><stop offset="100%" stop-color="#2E5B38" /></linearGradient><linearGradient id="concept-07-orchard-social-flesh-grad" x1="0%" y1="0%" x2="100%" y2="100%"><stop offset="0%" stop-color="#FFF0D1" /><stop offset="100%" stop-color="#F1CF90" /></linearGradient><linearGradient id="concept-07-orchard-social-social-bg" x1="0%" y1="0%" x2="100%" y2="100%"><stop offset="0%" stop-color="#110F12" /><stop offset="100%" stop-color="#24181A" /></linearGradient><clipPath id="concept-07-orchard-social-body-clip"><path d="M 500 240 C 630 260 748 320 742 520 C 742 748 632 842 500 842 C 368 842 258 748 258 520 C 258 320 370 260 500 240 Z" /></clipPath></defs><rect x="0" y="0" width="1200" height="630" fill="url(#concept-07-orchard-social-social-bg)" /><rect x="24" y="24" width="1152" height="582" rx="36" fill="none" stroke="#4B2F27" stroke-width="4" /><circle cx="272" cy="315" r="174" fill="#24181A" opacity="0.96" stroke="#4B2F27" stroke-width="4" /><g transform="translate(-228 -225) scale(0.5 0.5)"><ellipse cx="500" cy="860" rx="190" ry="44" fill="#150C0E" opacity="0.24" /><path d="M 500 240 C 630 260 748 320 742 520 C 742 748 632 842 500 842 C 368 842 258 748 258 520 C 258 320 370 260 500 240 Z" fill="url(#concept-07-orchard-social-body-grad)" stroke="#110F12" stroke-width="18" /><ellipse cx="421.04" cy="412" rx="104" ry="128" fill="#FFF8F3" opacity="0.12" transform="rotate(-16 421.04 412)" /><path d="M 432 332 C 402 476 402 650 432 780" fill="none" stroke="#A92B12" stroke-opacity="0.18" stroke-width="14" stroke-linecap="round" /><path d="M 500 332 C 470 476 470 650 500 780" fill="none" stroke="#A92B12" stroke-opacity="0.18" stroke-width="14" stroke-linecap="round" /><path d="M 398 198 C 431.62 249.68 429.16 298.32 398 350 C 366.84 298.32 364.38 249.68 398 198 Z" fill="url(#concept-07-orchard-social-leaf-grad)" stroke="#110F12" stroke-width="10" transform="rotate(-30.8 398 274)" /><path d="M 466 190 C 499.62 241.68 497.16 290.32 466 342 C 434.84 290.32 432.38 241.68 466 190 Z" fill="url(#concept-07-orchard-social-leaf-grad)" stroke="#110F12" stroke-width="10" transform="rotate(-6.8 466 266)" /><path d="M 534 190 C 567.62 241.68 565.16 290.32 534 342 C 502.84 290.32 500.38 241.68 534 190 Z" fill="url(#concept-07-orchard-social-leaf-grad)" stroke="#110F12" stroke-width="10" transform="rotate(17.2 534 266)" /><path d="M 602 198 C 635.62 249.68 633.16 298.32 602 350 C 570.84 298.32 568.38 249.68 602 198 Z" fill="url(#concept-07-orchard-social-leaf-grad)" stroke="#110F12" stroke-width="10" transform="rotate(41.2 602 274)" /><path d="M 488 210 C 492 188 508 188 512 210 L 522 274 C 524 286 516 298 503 300 L 497 300 C 484 298 476 286 478 274 Z" fill="#432C1D" stroke="#110F12" stroke-width="8" /><circle cx="500" cy="316" r="28" fill="#2E5B38" stroke="#110F12" stroke-width="8" /></g><text x="500" y="270" fill="#FFF8F3" font-family="system-ui, sans-serif" font-size="84" font-weight="800" letter-spacing="-2">suwappu</text><text x="504" y="334" fill="#FF9F57" font-family="system-ui, sans-serif" font-size="30" font-weight="700" letter-spacing="4" text-transform="uppercase">Orchard</text><text x="500" y="392" fill="#FFF8F3" opacity="0.84" font-family="system-ui, sans-serif" font-size="28" font-weight="500">Persimmon study 07</text><text x="500" y="450" fill="#FFF8F3" opacity="0.72" font-family="system-ui, sans-serif" font-size="24" font-weight="500">Deterministic SVG primitive system for brand exploration</text><path d="M 500 488 H 932" stroke="#4B2F27" stroke-width="2" stroke-linecap="round" stroke-opacity="0.8" /><text x="932" y="558" fill="#FF9F57" opacity="0.92" text-anchor="end" font-family="system-ui, sans-serif" font-size="24" font-weight="700" letter-spacing="3">CONCEPT 07</text></svg>