<svg xmlns="http://www.w3.org/2000/svg" width="1200" height="630" viewBox="0 0 1200 630" fill="none"><defs><radialGradient id="concept-23-seal-social-body-grad" cx="34%" cy="28%" r="78%"><stop offset="0%" stop-color="#FF9B58" /><stop offset="55%" stop-color="#F05A28" /><stop offset="100%" stop-color="#A93318" /></radialGradient><linearGradient id="concept-23-seal-social-leaf-grad" x1="0%" y1="0%" x2="100%" y2="100%"><stop offset="0%" stop-color="#75B67A" /><stop offset="100%" stop-color="#2C653F" /></linearGradient><linearGradient id="concept-23-seal-social-flesh-grad" x1="0%" y1="0%" x2="100%" y2="100%"><stop offset="0%" stop-color="#FFF1DE" /><stop offset="100%" stop-color="#EED09F" /></linearGradient><linearGradient id="concept-23-seal-social-social-bg" x1="0%" y1="0%" x2="100%" y2="100%"><stop offset="0%" stop-color="#140F13" /><stop offset="100%" stop-color="#22171C" /></linearGradient><clipPath id="concept-23-seal-social-body-clip"><path d="M 500 248 C 674 248 754 358 754 556 C 754 734 652 842 500 842 C 348 842 246 734 246 556 C 246 358 326 248 500 248 Z" /></clipPath></defs><rect x="0" y="0" width="1200" height="630" fill="url(#concept-23-seal-social-social-bg)" /><rect x="24" y="24" width="1152" height="582" rx="36" fill="none" stroke="#493128" stroke-width="4" /><circle cx="272" cy="315" r="174" fill="#22171C" opacity="0.96" stroke="#493128" stroke-width="4" /><g transform="translate(-228 -225) scale(0.5 0.5)"><polygon points="500,180 929.6,250.4 820,500 929.6,929.6 500,820 70.4,929.6 180,500 70.4,250.4" fill="#22171C" stroke="#493128" stroke-width="24" /><polygon points="500,180 942.8,237.2 820,500 942.8,942.8 500,820 57.2,942.8 180,500 57.2,237.2" fill="none" stroke="#FFF3EA" stroke-opacity="0.12" stroke-width="8" /><g transform="translate(0 24) scale(0.82 0.82) translate(110 96)"><ellipse cx="500" cy="860" rx="218" ry="44" fill="#140C0F" opacity="0.24" /><path d="M 500 248 C 674 248 754 358 754 556 C 754 734 652 842 500 842 C 348 842 246 734 246 556 C 246 358 326 248 500 248 Z" fill="url(#concept-23-seal-social-body-grad)" stroke="#140F13" stroke-width="18" /><ellipse cx="426.08" cy="448" rx="104" ry="128" fill="#FFF3EA" opacity="0.12" transform="rotate(-16 426.08 448)" /><path d="M 432 332 C 402 476 402 650 432 780" fill="none" stroke="#A93318" stroke-opacity="0.18" stroke-width="14" stroke-linecap="round" /><path d="M 500 332 C 470 476 470 650 500 780" fill="none" stroke="#A93318" stroke-opacity="0.18" stroke-width="14" stroke-linecap="round" /><path d="M 568 332 C 538 476 538 650 568 780" fill="none" stroke="#A93318" stroke-opacity="0.18" stroke-width="14" stroke-linecap="round" /><path d="M 636 332 C 606 476 606 650 636 780" fill="none" stroke="#A93318" stroke-opacity="0.18" stroke-width="14" stroke-linecap="round" /><path d="M 374 198 C 417.46 249.68 414.28 298.32 374 350 C 333.72 298.32 330.54 249.68 374 198 Z" fill="url(#concept-23-seal-social-leaf-grad)" stroke="#140F13" stroke-width="10" transform="rotate(-39.6 374 274)" /><path d="M 458 190 C 501.46 241.68 498.28 290.32 458 342 C 417.72 290.32 414.54 241.68 458 190 Z" fill="url(#concept-23-seal-social-leaf-grad)" stroke="#140F13" stroke-width="10" transform="rotate(-15.6 458 266)" /><path d="M 542 190 C 585.46 241.68 582.28 290.32 542 342 C 501.72 290.32 498.54 241.68 542 190 Z" fill="url(#concept-23-seal-social-leaf-grad)" stroke="#140F13" stroke-width="10" transform="rotate(8.4 542 266)" /><path d="M 626 198 C 669.46 249.68 666.28 298.32 626 350 C 585.72 298.32 582.54 249.68 626 198 Z" fill="url(#concept-23-seal-social-leaf-grad)" stroke="#140F13" stroke-width="10" transform="rotate(32.4 626 274)" /><path d="M 488 210 C 492 188 508 188 512 210 L 522 274 C 524 286 516 298 503 300 L 497 300 C 484 298 476 286 478 274 Z" fill="#463321" stroke="#140F13" stroke-width="8" /><circle cx="500" cy="316" r="28" fill="#2C653F" stroke="#140F13" stroke-width="8" /></g></g><text x="500" y="270" fill="#FFF3EA" font-family="system-ui, sans-serif" font-size="84" font-weight="800" letter-spacing="-2">suwappu</text><text x="504" y="334" fill="#FF9B58" font-family="system-ui, sans-serif" font-size="30" font-weight="700" letter-spacing="4" text-transform="uppercase">Seal</text><text x="500" y="392" fill="#FFF3EA" opacity="0.84" font-family="system-ui, sans-serif" font-size="28" font-weight="500">Persimmon study 23</text><text x="500" y="450" fill="#FFF3EA" opacity="0.72" font-family="system-ui, sans-serif" font-size="24" font-weight="500">Deterministic SVG primitive system for brand exploration</text><path d="M 500 488 H 932" stroke="#493128" stroke-width="2" stroke-linecap="round" stroke-opacity="0.8" /><text x="932" y="558" fill="#FF9B58" opacity="0.92" text-anchor="end" font-family="system-ui, sans-serif" font-size="24" font-weight="700" letter-spacing="3">CONCEPT 23</text></svg>