<svg xmlns="http://www.w3.org/2000/svg" width="1200" height="630" viewBox="0 0 1200 630" fill="none"><defs><radialGradient id="concept-17-slice-social-body-grad" cx="34%" cy="28%" r="78%"><stop offset="0%" stop-color="#FF9F57" /><stop offset="55%" stop-color="#F85B1F" /><stop offset="100%" stop-color="#A92B12" /></radialGradient><linearGradient id="concept-17-slice-social-leaf-grad" x1="0%" y1="0%" x2="100%" y2="100%"><stop offset="0%" stop-color="#74B46D" /><stop offset="100%" stop-color="#2E5B38" /></linearGradient><linearGradient id="concept-17-slice-social-flesh-grad" x1="0%" y1="0%" x2="100%" y2="100%"><stop offset="0%" stop-color="#FFF0D1" /><stop offset="100%" stop-color="#F1CF90" /></linearGradient><linearGradient id="concept-17-slice-social-social-bg" x1="0%" y1="0%" x2="100%" y2="100%"><stop offset="0%" stop-color="#110F12" /><stop offset="100%" stop-color="#24181A" /></linearGradient><clipPath id="concept-17-slice-social-body-clip"><path d="M 500 248 C 682 248 770 350 770 556 C 770 734 660 842 500 842 C 340 842 230 734 230 556 C 230 350 318 248 500 248 Z" /></clipPath></defs><rect x="0" y="0" width="1200" height="630" fill="url(#concept-17-slice-social-social-bg)" /><rect x="24" y="24" width="1152" height="582" rx="36" fill="none" stroke="#4B2F27" stroke-width="4" /><circle cx="272" cy="315" r="174" fill="#24181A" opacity="0.96" stroke="#4B2F27" stroke-width="4" /><g transform="translate(-228 -225) scale(0.5 0.5)"><ellipse cx="500" cy="860" rx="190" ry="44" fill="#150C0E" opacity="0.24" /><path d="M 500 248 C 682 248 770 350 770 556 C 770 734 660 842 500 842 C 340 842 230 734 230 556 C 230 350 318 248 500 248 Z" fill="url(#concept-17-slice-social-body-grad)" stroke="#110F12" stroke-width="18" /><ellipse cx="421.04" cy="412" rx="104" ry="128" fill="#FFF8F3" opacity="0.12" transform="rotate(-16 421.04 412)" /><path d="M 432 332 C 402 476 402 650 432 780" fill="none" stroke="#A92B12" stroke-opacity="0.18" stroke-width="14" stroke-linecap="round" /><path d="M 500 332 C 470 476 470 650 500 780" fill="none" stroke="#A92B12" stroke-opacity="0.18" stroke-width="14" stroke-linecap="round" /><path d="M 364 202 C 397.62 253.68 395.16 302.32 364 354 C 332.84 302.32 330.38 253.68 364 202 Z" fill="url(#concept-17-slice-social-leaf-grad)" stroke="#110F12" stroke-width="10" transform="rotate(-42.8 364 278)" /><path d="M 432 194 C 465.62 245.68 463.16 294.32 432 346 C 400.84 294.32 398.38 245.68 432 194 Z" fill="url(#concept-17-slice-social-leaf-grad)" stroke="#110F12" stroke-width="10" transform="rotate(-18.8 432 270)" /><path d="M 500 186 C 533.62 237.68 531.16 286.32 500 338 C 468.84 286.32 466.38 237.68 500 186 Z" fill="url(#concept-17-slice-social-leaf-grad)" stroke="#110F12" stroke-width="10" transform="rotate(5.2 500 262)" /><path d="M 568 194 C 601.62 245.68 599.16 294.32 568 346 C 536.84 294.32 534.38 245.68 568 194 Z" fill="url(#concept-17-slice-social-leaf-grad)" stroke="#110F12" stroke-width="10" transform="rotate(29.2 568 270)" /><path d="M 636 202 C 669.62 253.68 667.16 302.32 636 354 C 604.84 302.32 602.38 253.68 636 202 Z" fill="url(#concept-17-slice-social-leaf-grad)" stroke="#110F12" stroke-width="10" transform="rotate(53.2 636 278)" /><path d="M 488 210 C 492 188 508 188 512 210 L 522 274 C 524 286 516 298 503 300 L 497 300 C 484 298 476 286 478 274 Z" fill="#432C1D" stroke="#110F12" stroke-width="8" /><circle cx="500" cy="316" r="28" fill="#2E5B38" stroke="#110F12" stroke-width="8" /><circle cx="620" cy="596" r="122" fill="url(#concept-17-slice-social-flesh-grad)" stroke="#110F12" stroke-width="14" /><circle cx="620" cy="596" r="80" fill="#FFF0D1" opacity="0.7" /><path d="M 620 531 C 634 546.96 631.2 561.24 620 573 C 608.8 561.24 606 546.96 620 531 Z" fill="#A92B12" opacity="0.84" transform="rotate(-28 620 552)" /><path d="M 664 575 C 678 590.96 675.2 605.24 664 617 C 652.8 605.24 650 590.96 664 575 Z" fill="#A92B12" opacity="0.84" transform="rotate(-12 664 596)" /><path d="M 620 619 C 634 634.96 631.2 649.24 620 661 C 608.8 649.24 606 634.96 620 619 Z" fill="#A92B12" opacity="0.84" transform="rotate(4 620 640)" /><path d="M 576 575 C 590 590.96 587.2 605.24 576 617 C 564.8 605.24 562 590.96 576 575 Z" fill="#A92B12" opacity="0.84" transform="rotate(20 576 596)" /></g><text x="500" y="270" fill="#FFF8F3" font-family="system-ui, sans-serif" font-size="84" font-weight="800" letter-spacing="-2">suwappu</text><text x="504" y="334" fill="#FF9F57" font-family="system-ui, sans-serif" font-size="30" font-weight="700" letter-spacing="4" text-transform="uppercase">Slice</text><text x="500" y="392" fill="#FFF8F3" opacity="0.84" font-family="system-ui, sans-serif" font-size="28" font-weight="500">Persimmon study 17</text><text x="500" y="450" fill="#FFF8F3" opacity="0.72" font-family="system-ui, sans-serif" font-size="24" font-weight="500">Deterministic SVG primitive system for brand exploration</text><path d="M 500 488 H 932" stroke="#4B2F27" stroke-width="2" stroke-linecap="round" stroke-opacity="0.8" /><text x="932" y="558" fill="#FF9F57" opacity="0.92" text-anchor="end" font-family="system-ui, sans-serif" font-size="24" font-weight="700" letter-spacing="3">CONCEPT 17</text></svg>