<svg xmlns="http://www.w3.org/2000/svg" width="1000" height="1000" viewBox="0 0 1000 1000" fill="none"><defs><radialGradient id="concept-38-ribbon-favicon-body-grad" cx="34%" cy="28%" r="78%"><stop offset="0%" stop-color="#FFBE73" /><stop offset="55%" stop-color="#E97C2F" /><stop offset="100%" stop-color="#9B421A" /></radialGradient><linearGradient id="concept-38-ribbon-favicon-leaf-grad" x1="0%" y1="0%" x2="100%" y2="100%"><stop offset="0%" stop-color="#A0C364" /><stop offset="100%" stop-color="#47632D" /></linearGradient><linearGradient id="concept-38-ribbon-favicon-flesh-grad" x1="0%" y1="0%" x2="100%" y2="100%"><stop offset="0%" stop-color="#FFF6E6" /><stop offset="100%" stop-color="#E9D4A5" /></linearGradient><linearGradient id="concept-38-ribbon-favicon-social-bg" x1="0%" y1="0%" x2="100%" y2="100%"><stop offset="0%" stop-color="#141012" /><stop offset="100%" stop-color="#221D17" /></linearGradient><clipPath id="concept-38-ribbon-favicon-body-clip"><path d="M 500 248 C 631 268 749 320 742 520 C 742 751 633 832 500 832 C 367 832 258 751 258 520 C 258 320 369 268 500 248 Z" /></clipPath></defs><rect x="64" y="64" width="872" height="872" rx="248" fill="url(#concept-38-ribbon-favicon-social-bg)" /><rect x="104" y="104" width="792" height="792" rx="212" fill="none" stroke="#50352B" stroke-width="18" /><g transform="translate(0 28) scale(0.78 0.78) translate(140 120)"><ellipse cx="500" cy="860" rx="204" ry="44" fill="#160D0D" opacity="0.24" /><path d="M 500 248 C 631 268 749 320 742 520 C 742 751 633 832 500 832 C 367 832 258 751 258 520 C 258 320 369 268 500 248 Z" fill="url(#concept-38-ribbon-favicon-body-grad)" stroke="#9B421A" stroke-width="12" /><ellipse cx="426.08" cy="430" rx="104" ry="128" fill="#FFF6EE" opacity="0.12" transform="rotate(-16 426.08 430)" /><path d="M 432 332 C 402 476 402 650 432 780" fill="none" stroke="#9B421A" stroke-opacity="0.18" stroke-width="14" stroke-linecap="round" /><path d="M 500 332 C 470 476 470 650 500 780" fill="none" stroke="#9B421A" stroke-opacity="0.18" stroke-width="14" stroke-linecap="round" /><path d="M 568 332 C 538 476 538 650 568 780" fill="none" stroke="#9B421A" stroke-opacity="0.18" stroke-width="14" stroke-linecap="round" /><path d="M 386 193 C 424.54 248.08 421.72 299.92 386 355 C 350.28 299.92 347.46 248.08 386 193 Z" fill="url(#concept-38-ribbon-favicon-leaf-grad)" stroke="#141012" stroke-width="10" transform="rotate(-28.6 386 274)" /><path d="M 462 185 C 500.54 240.08 497.72 291.92 462 347 C 426.28 291.92 423.46 240.08 462 185 Z" fill="url(#concept-38-ribbon-favicon-leaf-grad)" stroke="#141012" stroke-width="10" transform="rotate(-4.6 462 266)" /><path d="M 538 185 C 576.54 240.08 573.72 291.92 538 347 C 502.28 291.92 499.46 240.08 538 185 Z" fill="url(#concept-38-ribbon-favicon-leaf-grad)" stroke="#141012" stroke-width="10" transform="rotate(19.4 538 266)" /><path d="M 614 193 C 652.54 248.08 649.72 299.92 614 355 C 578.28 299.92 575.46 248.08 614 193 Z" fill="url(#concept-38-ribbon-favicon-leaf-grad)" stroke="#141012" stroke-width="10" transform="rotate(43.4 614 274)" /><path d="M 488 210 C 492 188 508 188 512 210 L 522 274 C 524 286 516 298 503 300 L 497 300 C 484 298 476 286 478 274 Z" fill="#5A3C20" stroke="#141012" stroke-width="8" /><circle cx="500" cy="316" r="28" fill="#47632D" stroke="#141012" stroke-width="8" /><rect x="170" y="420" width="660" height="94" rx="47" fill="#FFF6E6" opacity="0.92" transform="rotate(4 500 540)" clip-path="url(#concept-38-ribbon-favicon-body-clip)" /><rect x="170" y="506" width="660" height="66" rx="33" fill="#FFBE73" opacity="0.64" transform="rotate(10 500 540)" clip-path="url(#concept-38-ribbon-favicon-body-clip)" /><rect x="170" y="592" width="660" height="52" rx="26" fill="#FFF6E6" opacity="0.92" transform="rotate(16 500 540)" clip-path="url(#concept-38-ribbon-favicon-body-clip)" /><path d="M 324 350 C 430 280 628 276 694 342" fill="none" stroke="#FFF6EE" stroke-opacity="0.25" stroke-width="18" stroke-linecap="round" /></g><text x="150" y="850" fill="#FFF6EE" font-family="system-ui, sans-serif" font-size="52" font-weight="700" letter-spacing="4">38</text></svg>