<svg xmlns="http://www.w3.org/2000/svg" width="1000" height="1250" viewBox="0 0 1000 1250" role="img" aria-label="AAPL position card"><defs><clipPath id="cut"><rect x="66" y="437" width="868" height="472"/></clipPath><pattern id="ehob" width="21" height="21" patternUnits="userSpaceOnUse" patternTransform="rotate(35)"><path d="M10.5 0 L21 10.5 L10.5 21 L0 10.5 Z" fill="none" stroke="currentColor" stroke-width="1.5"/><path d="M10.5 4.7250000000000005 L16.38 10.5 L10.5 16.275 L4.62 10.5 Z" fill="none" stroke="currentColor" stroke-width="1"/></pattern><linearGradient id="plate" x1="0.1" y1="0" x2="0.85" y2="1"><stop offset="0" stop-color="#eef7ed"/><stop offset="0.62" stop-color="#eef0e6"/><stop offset="1" stop-color="#e3f0e0"/></linearGradient><radialGradient id="bloom" cx="0.5" cy="0.5" r="0.5"><stop offset="0" stop-color="#ff6b6b" stop-opacity="0.34"/><stop offset="0.5" stop-color="#86efac" stop-opacity="0.15"/><stop offset="1" stop-color="#86efac" stop-opacity="0"/></radialGradient><radialGradient id="clear" cx="0.5" cy="0.5" r="0.5"><stop offset="0" stop-color="#faf8f4" stop-opacity="0.90"/><stop offset="0.6" stop-color="#faf8f4" stop-opacity="0.74"/><stop offset="1" stop-color="#faf8f4" stop-opacity="0"/></radialGradient><pattern id="hatch" width="7" height="7" patternUnits="userSpaceOnUse" patternTransform="rotate(35)"><line x1="0" y1="0" x2="0" y2="7" stroke="#000000" stroke-opacity="0.030" stroke-width="1"/></pattern><linearGradient id="span" x1="0" y1="0" x2="1" y2="0"><stop offset="0" stop-color="#a4243b" stop-opacity="0.10"/><stop offset="1" stop-color="#a4243b" stop-opacity="0.55"/></linearGradient><path id="gs" d="M852.0 1082.0L850.9 1084.3L848.1 1086.3L844.7 1088.0L841.7 1089.6L840.4 1091.2L840.9 1093.3L842.9 1095.9L845.3 1099.0L846.9 1102.0L846.9 1104.6L844.9 1106.2L841.5 1106.8L837.6 1106.8L834.3 1106.9L832.4 1107.8L831.9 1109.9L832.6 1113.1L833.4 1116.9L833.5 1120.4L832.4 1122.7L830.0 1123.3L826.6 1122.3L823.1 1120.7L820.1 1119.4L818.0 1119.3L816.7 1121.0L815.8 1124.2L814.9 1128.0L813.6 1131.2L811.6 1132.7L809.1 1132.2L806.5 1129.9L804.0 1126.9L801.9 1124.4L800.0 1123.4L798.1 1124.4L796.0 1126.9L793.5 1129.9L790.9 1132.2L788.4 1132.7L786.4 1131.2L785.1 1128.0L784.2 1124.2L783.3 1121.0L782.0 1119.3L779.9 1119.4L776.9 1120.7L773.4 1122.3L770.0 1123.3L767.6 1122.7L766.5 1120.4L766.6 1116.9L767.4 1113.1L768.1 1109.9L767.6 1107.8L765.7 1106.9L762.4 1106.8L758.5 1106.8L755.1 1106.2L753.1 1104.6L753.1 1102.0L754.7 1099.0L757.1 1095.9L759.1 1093.3L759.6 1091.2L758.3 1089.6L755.3 1088.0L751.9 1086.3L749.1 1084.3L748.0 1082.0L749.1 1079.7L751.9 1077.7L755.3 1076.0L758.3 1074.4L759.6 1072.8L759.1 1070.7L757.1 1068.1L754.7 1065.0L753.1 1062.0L753.1 1059.4L755.1 1057.8L758.5 1057.2L762.4 1057.2L765.7 1057.1L767.6 1056.2L768.1 1054.1L767.4 1050.9L766.6 1047.1L766.5 1043.6L767.6 1041.3L770.0 1040.7L773.4 1041.7L776.9 1043.3L779.9 1044.6L782.0 1044.7L783.3 1043.0L784.2 1039.8L785.1 1036.0L786.4 1032.8L788.4 1031.3L790.9 1031.8L793.5 1034.1L796.0 1037.1L798.1 1039.6L800.0 1040.6L801.9 1039.6L804.0 1037.1L806.5 1034.1L809.1 1031.8L811.6 1031.3L813.6 1032.8L814.9 1036.0L815.8 1039.8L816.7 1043.0L818.0 1044.7L820.1 1044.6L823.1 1043.3L826.6 1041.7L830.0 1040.7L832.4 1041.3L833.5 1043.6L833.4 1047.1L832.6 1050.9L831.9 1054.1L832.4 1056.2L834.3 1057.1L837.6 1057.2L841.5 1057.2L844.9 1057.8L846.9 1059.4L846.9 1062.0L845.3 1065.0L842.9 1068.1L840.9 1070.7L840.4 1072.8L841.7 1074.4L844.7 1076.0L848.1 1077.7L850.9 1079.7L852.0 1082.0"/><path id="sealArc" d="M742 1082 A58 58 0 0 1 858 1082" fill="none"/></defs><rect width="1000" height="1250" fill="url(#plate)"/><rect width="1000" height="1250" fill="url(#hatch)"/><ellipse cx="500.0" cy="673" rx="463.1" ry="453.1" fill="url(#bloom)"/><g clip-path="url(#cut)" color="#7bb58c" opacity="0.55"><rect width="1000" height="1250" fill="url(#ehob)"/></g><rect x="54" y="54" width="892" height="1142" fill="none" stroke="#7bb58c" stroke-opacity="0.75" stroke-width="3.5"/><rect x="65" y="65" width="870" height="1120" fill="none" stroke="#7bb58c" stroke-opacity="0.32" stroke-width="1.2"/><circle cx="65" cy="65" r="17" fill="none" stroke="#7bb58c" stroke-opacity="0.5" stroke-width="1.6"/><circle cx="65" cy="65" r="7" fill="#7bb58c" fill-opacity="0.55"/><circle cx="935" cy="65" r="17" fill="none" stroke="#7bb58c" stroke-opacity="0.5" stroke-width="1.6"/><circle cx="935" cy="65" r="7" fill="#7bb58c" fill-opacity="0.55"/><circle cx="65" cy="1185" r="17" fill="none" stroke="#7bb58c" stroke-opacity="0.5" stroke-width="1.6"/><circle cx="65" cy="1185" r="7" fill="#7bb58c" fill-opacity="0.55"/><circle cx="935" cy="1185" r="17" fill="none" stroke="#7bb58c" stroke-opacity="0.5" stroke-width="1.6"/><circle cx="935" cy="1185" r="7" fill="#7bb58c" fill-opacity="0.55"/><text x="96" y="118" font-family="'Geist Mono','SFMono-Regular',Menlo,Consolas,'DejaVu Sans Mono',monospace" font-size="16" font-weight="bold" letter-spacing="7.0" fill="#f472b6" text-anchor="start">SUWAPPU</text><text x="500.0" y="118" font-family="'Geist Mono','SFMono-Regular',Menlo,Consolas,'DejaVu Sans Mono',monospace" font-size="11.5" font-weight="normal" letter-spacing="4.0" fill="#9cc8a9" text-anchor="middle">CERTIFICATE OF POSITION</text><text x="904" y="118" font-family="Geist,'Inter',system-ui,-apple-system,'Liberation Sans',Arial,sans-serif" font-size="18" fill="#7bb58c" text-anchor="end" letter-spacing="1.4">No. 1804</text><line x1="96" y1="140" x2="904" y2="140" stroke="#7bb58c" stroke-opacity="0.45" stroke-width="1.2"/><text x="96" y="290" font-family="Geist,'Inter',system-ui,-apple-system,'Liberation Sans',Arial,sans-serif" font-size="150" font-weight="bold" fill="#1a1a1a" letter-spacing="-3">AAPL</text><text x="96" y="330" font-family="'Geist Mono','SFMono-Regular',Menlo,Consolas,'DejaVu Sans Mono',monospace" font-size="14.5" font-weight="normal" letter-spacing="3.2" fill="#b0f5c9" text-anchor="start">APPLE</text><text x="96" y="360" font-family="'Geist Mono','SFMono-Regular',Menlo,Consolas,'DejaVu Sans Mono',monospace" font-size="12" font-weight="normal" letter-spacing="3.4" fill="#86efac" text-anchor="start">CONSUMER</text><text x="904" y="290" font-family="Geist,'Inter',system-ui,-apple-system,'Liberation Sans',Arial,sans-serif" font-size="30" fill="#ff6b6b" text-anchor="end" font-style="italic">Early</text><ellipse cx="500.0" cy="673" rx="178" ry="101" fill="url(#clear)"/><text x="500.0" y="717" font-family="Geist,'Inter',system-ui,-apple-system,'Liberation Sans',Arial,sans-serif" font-size="138" font-weight="bold" fill="#a4243b" text-anchor="middle" letter-spacing="-3">−5.7%</text><text x="500.0" y="757" font-family="'Geist Mono','SFMono-Regular',Menlo,Consolas,'DejaVu Sans Mono',monospace" font-size="12" font-weight="normal" letter-spacing="6.0" fill="#74202f" text-anchor="middle">SINCE ENTRY</text><line x1="96" y1="952" x2="904" y2="952" stroke="#44644d" stroke-width="1.4"/><line x1="136.4" y1="947" x2="136.4" y2="957" stroke="#4a6d54" stroke-width="1.1"/><line x1="176.8" y1="947" x2="176.8" y2="957" stroke="#4a6d54" stroke-width="1.1"/><line x1="217.2" y1="947" x2="217.2" y2="957" stroke="#4a6d54" stroke-width="1.1"/><line x1="257.6" y1="947" x2="257.6" y2="957" stroke="#4a6d54" stroke-width="1.1"/><line x1="298.0" y1="942" x2="298.0" y2="962" stroke="#4a6d54" stroke-width="1.1"/><line x1="338.4" y1="947" x2="338.4" y2="957" stroke="#4a6d54" stroke-width="1.1"/><line x1="378.8" y1="947" x2="378.8" y2="957" stroke="#4a6d54" stroke-width="1.1"/><line x1="419.2" y1="947" x2="419.2" y2="957" stroke="#4a6d54" stroke-width="1.1"/><line x1="459.6" y1="947" x2="459.6" y2="957" stroke="#4a6d54" stroke-width="1.1"/><line x1="500.0" y1="942" x2="500.0" y2="962" stroke="#4a6d54" stroke-width="1.1"/><line x1="540.4" y1="947" x2="540.4" y2="957" stroke="#4a6d54" stroke-width="1.1"/><line x1="580.8" y1="947" x2="580.8" y2="957" stroke="#4a6d54" stroke-width="1.1"/><line x1="621.2" y1="947" x2="621.2" y2="957" stroke="#4a6d54" stroke-width="1.1"/><line x1="661.6" y1="947" x2="661.6" y2="957" stroke="#4a6d54" stroke-width="1.1"/><line x1="702.0" y1="942" x2="702.0" y2="962" stroke="#4a6d54" stroke-width="1.1"/><line x1="742.4" y1="947" x2="742.4" y2="957" stroke="#4a6d54" stroke-width="1.1"/><line x1="782.8" y1="947" x2="782.8" y2="957" stroke="#4a6d54" stroke-width="1.1"/><line x1="823.2" y1="947" x2="823.2" y2="957" stroke="#4a6d54" stroke-width="1.1"/><line x1="863.6" y1="947" x2="863.6" y2="957" stroke="#4a6d54" stroke-width="1.1"/><rect x="96" y="935" width="808" height="34" fill="url(#span)" transform="rotate(180 500 0)"/><line x1="904" y1="926" x2="904" y2="978" stroke="#6b6560" stroke-width="3"/><text x="904" y="914" font-family="'Geist Mono','SFMono-Regular',Menlo,Consolas,'DejaVu Sans Mono',monospace" font-size="11" font-weight="normal" letter-spacing="4.0" fill="#6b6560" text-anchor="end">BASIS</text><text x="904" y="1012" font-family="Geist,'Inter',system-ui,-apple-system,'Liberation Sans',Arial,sans-serif" font-size="34" fill="#6b6560" text-anchor="end">$326.59</text><line x1="96" y1="926" x2="96" y2="978" stroke="#a4243b" stroke-width="3"/><text x="96" y="914" font-family="'Geist Mono','SFMono-Regular',Menlo,Consolas,'DejaVu Sans Mono',monospace" font-size="11" font-weight="normal" letter-spacing="4.0" fill="#6b6560" text-anchor="start">NOW</text><text x="96" y="1012" font-family="Geist,'Inter',system-ui,-apple-system,'Liberation Sans',Arial,sans-serif" font-size="34" fill="#a4243b" text-anchor="start">$308.10</text><circle cx="800" cy="1082" r="72" fill="#e3f0e0" fill-opacity="0.75"/><circle cx="800" cy="1082" r="72" fill="none" stroke="#ff6b6b" stroke-opacity="0.7" stroke-width="2.6"/><circle cx="800" cy="1082" r="62" fill="none" stroke="#ff6b6b" stroke-opacity="0.3" stroke-width="1"/><g stroke="#ff6b6b" fill="none" stroke-width="1" opacity="0.32"><use href="#gs" transform="rotate(8.0 800 1082)"/><use href="#gs" transform="rotate(80.0 800 1082)"/><use href="#gs" transform="rotate(152.0 800 1082)"/><use href="#gs" transform="rotate(224.0 800 1082)"/><use href="#gs" transform="rotate(296.0 800 1082)"/></g><text font-family="'Geist Mono','SFMono-Regular',Menlo,Consolas,'DejaVu Sans Mono',monospace" font-size="11" fill="#ff6b6b" fill-opacity="0.9" letter-spacing="3.4"><textPath href="#sealArc" startOffset="50%" text-anchor="middle">UNDERWATER</textPath></text><text x="800" y="1094" font-family="Geist,'Inter',system-ui,-apple-system,'Liberation Sans',Arial,sans-serif" font-size="30" font-weight="bold" fill="#1a1a1a" text-anchor="middle">AAPL</text><text x="96" y="1072" font-family="Geist,'Inter',system-ui,-apple-system,'Liberation Sans',Arial,sans-serif" font-size="30" fill="#1a1a1a">−40 bps on every swap</text><text x="96" y="1104" font-family="'Geist Mono','SFMono-Regular',Menlo,Consolas,'DejaVu Sans Mono',monospace" font-size="11.5" font-weight="normal" letter-spacing="3.0" fill="#6b6560" text-anchor="start">STRUCK 04 AUG 2026 · RANK 1804 OF 10,000</text><text x="96" y="1170" font-family="'Geist Mono','SFMono-Regular',Menlo,Consolas,'DejaVu Sans Mono',monospace" font-size="9.5" font-weight="normal" letter-spacing="2.2" fill="#5f5a51" text-anchor="start">COLLECTIBLE · NOT EQUITY · NOT A SECURITY · PAYS NOTHING · NO CLAIM ON ANY ISSUER</text><text x="904" y="1170" font-family="'Geist Mono','SFMono-Regular',Menlo,Consolas,'DejaVu Sans Mono',monospace" font-size="9.5" font-weight="normal" letter-spacing="2.2" fill="#5f5a51" text-anchor="end">4663 · 3</text></svg>