<svg xmlns="http://www.w3.org/2000/svg" width="1000" height="1250" viewBox="0 0 1000 1250" role="img" aria-label="SPCX position card"><defs><linearGradient id="plate" x1="0.1" y1="0" x2="0.85" y2="1"><stop offset="0" stop-color="#19202a"/><stop offset="0.62" stop-color="#0e1318"/><stop offset="1" stop-color="#111a20"/></linearGradient><radialGradient id="bloom" cx="0.5" cy="0.5" r="0.5"><stop offset="0" stop-color="#7dd3fc" stop-opacity="0.34"/><stop offset="0.5" stop-color="#93c5fd" stop-opacity="0.15"/><stop offset="1" stop-color="#93c5fd" stop-opacity="0"/></radialGradient><radialGradient id="clear" cx="0.5" cy="0.5" r="0.5"><stop offset="0" stop-color="#040406" stop-opacity="0.90"/><stop offset="0.6" stop-color="#040406" stop-opacity="0.72"/><stop offset="1" stop-color="#040406" stop-opacity="0"/></radialGradient><pattern id="hatch" width="7" height="7" patternUnits="userSpaceOnUse" patternTransform="rotate(35)"><line x1="0" y1="0" x2="0" y2="7" stroke="#ffffff" stroke-opacity="0.030" stroke-width="1"/></pattern><linearGradient id="span" x1="0" y1="0" x2="1" y2="0"><stop offset="0" stop-color="#7dd3fc" stop-opacity="0.10"/><stop offset="1" stop-color="#7dd3fc" stop-opacity="0.55"/></linearGradient><path id="g1" d="M806.0 590.0L798.2 597.8L775.8 604.5L741.8 609.0L700.8 611.1L658.3 610.8L619.9 609.0L590.7 606.8L574.3 605.8L572.8 607.5L586.0 613.0L611.7 623.1L646.3 637.5L684.6 655.4L721.3 674.9L751.2 694.1L770.4 710.4L776.0 721.7L767.6 726.3L746.1 723.6L714.7 713.9L677.3 698.6L638.8 680.2L604.2 661.6L577.4 646.2L561.4 637.1L557.6 636.6L565.5 645.9L583.2 664.9L607.4 691.9L634.2 724.2L659.3 757.8L679.0 788.8L690.5 813.0L692.2 827.3L683.9 829.6L666.8 819.6L643.3 798.5L616.5 769.4L589.6 736.3L565.8 704.0L547.4 677.3L535.9 660.5L531.7 656.4L534.0 666.3L541.1 689.3L551.0 723.0L561.3 763.1L569.7 804.6L574.7 842.1L575.2 870.5L571.1 886.2L563.1 886.8L552.3 872.4L540.4 844.9L528.7 807.9L518.6 766.6L510.7 726.5L505.4 693.2L502.1 671.1L500.0 663.4L497.9 671.1L494.6 693.2L489.3 726.5L481.4 766.6L471.3 807.9L459.6 844.9L447.7 872.4L436.9 886.8L428.9 886.2L424.8 870.5L425.3 842.1L430.3 804.6L438.7 763.1L449.0 723.0L458.9 689.3L466.0 666.3L468.3 656.4L464.1 660.5L452.6 677.3L434.2 704.0L410.4 736.3L383.5 769.4L356.7 798.5L333.2 819.6L316.1 829.6L307.8 827.3L309.5 813.0L321.0 788.8L340.7 757.8L365.8 724.2L392.6 691.9L416.8 664.9L434.5 645.9L442.4 636.6L438.6 637.1L422.6 646.2L395.8 661.6L361.2 680.2L322.7 698.6L285.3 713.9L253.9 723.6L232.4 726.3L224.0 721.7L229.6 710.4L248.8 694.1L278.7 674.9L315.4 655.4L353.7 637.5L388.3 623.1L414.0 613.0L427.2 607.5L425.7 605.8L409.3 606.8L380.1 609.0L341.7 610.8L299.2 611.1L258.2 609.0L224.2 604.5L201.8 597.8L194.0 590.0L201.8 582.2L224.2 575.5L258.2 571.0L299.2 568.9L341.7 569.2L380.1 571.0L409.3 573.2L425.7 574.2L427.2 572.5L414.0 567.0L388.3 556.9L353.7 542.5L315.4 524.6L278.7 505.1L248.8 485.9L229.6 469.6L224.0 458.3L232.4 453.7L253.9 456.4L285.3 466.1L322.7 481.4L361.2 499.8L395.8 518.4L422.6 533.8L438.6 542.9L442.4 543.4L434.5 534.1L416.8 515.1L392.6 488.1L365.8 455.8L340.7 422.2L321.0 391.2L309.5 367.0L307.8 352.7L316.1 350.4L333.2 360.4L356.7 381.5L383.5 410.6L410.4 443.7L434.2 476.0L452.6 502.7L464.1 519.5L468.3 523.6L466.0 513.7L458.9 490.7L449.0 457.0L438.7 416.9L430.3 375.4L425.3 337.9L424.8 309.5L428.9 293.8L436.9 293.2L447.7 307.6L459.6 335.1L471.3 372.1L481.4 413.4L489.3 453.5L494.6 486.8L497.9 508.9L500.0 516.6L502.1 508.9L505.4 486.8L510.7 453.5L518.6 413.4L528.7 372.1L540.4 335.1L552.3 307.6L563.1 293.2L571.1 293.8L575.2 309.5L574.7 337.9L569.7 375.4L561.3 416.9L551.0 457.0L541.1 490.7L534.0 513.7L531.7 523.6L535.9 519.5L547.4 502.7L565.8 476.0L589.6 443.7L616.5 410.6L643.3 381.5L666.8 360.4L683.9 350.4L692.2 352.7L690.5 367.0L679.0 391.2L659.3 422.2L634.2 455.8L607.4 488.1L583.2 515.1L565.5 534.1L557.6 543.4L561.4 542.9L577.4 533.8L604.2 518.4L638.8 499.8L677.3 481.4L714.7 466.1L746.1 456.4L767.6 453.7L776.0 458.3L770.4 469.6L751.2 485.9L721.3 505.1L684.6 524.6L646.3 542.5L611.7 556.9L586.0 567.0L572.8 572.5L574.3 574.2L590.7 573.2L619.9 571.0L658.3 569.2L700.8 568.9L741.8 571.0L775.8 575.5L798.2 582.2L806.0 590.0"/><path id="g2" d="M689.7 590.0L684.7 594.8L670.8 599.0L650.6 601.9L628.1 603.5L607.6 604.2L593.1 604.8L587.3 606.2L591.1 609.4L603.5 614.9L621.9 622.7L642.3 632.2L660.6 642.2L673.1 651.3L677.1 658.0L671.7 661.1L658.1 660.4L638.6 656.1L617.0 649.6L597.3 642.8L582.7 637.8L575.8 636.5L577.3 640.2L586.1 649.2L600.0 662.7L615.7 678.8L629.6 694.9L638.6 708.4L640.8 716.8L635.5 718.6L623.7 713.7L607.5 703.2L589.6 689.6L573.3 675.8L561.0 665.3L554.3 660.8L553.6 663.8L558.1 674.6L566.0 691.6L574.8 712.1L582.2 732.5L586.3 748.9L585.8 758.5L580.8 759.4L571.9 751.5L560.7 736.5L549.0 717.5L538.4 698.6L530.4 683.6L525.5 675.9L523.4 677.4L523.6 688.1L524.7 706.1L525.6 728.2L525.4 750.2L523.4 767.8L519.7 777.6L514.8 777.7L509.3 768.2L504.2 750.9L500.0 729.3L496.9 707.5L494.8 689.9L492.9 679.9L490.6 679.4L487.0 688.4L481.8 704.9L474.9 725.6L466.8 746.3L458.5 762.7L451.3 771.6L446.4 771.1L444.4 761.3L445.5 744.0L449.1 722.5L454.1 700.8L458.6 683.0L460.9 672.0L459.4 669.7L453.4 675.8L443.0 688.7L429.3 705.4L414.3 722.0L400.4 734.9L389.9 741.5L384.8 740.2L385.7 731.1L392.4 715.9L403.3 697.4L415.7 678.8L426.8 663.2L433.5 653.1L433.8 649.6L426.8 652.5L413.1 660.3L394.7 670.8L374.7 681.0L356.6 688.6L343.7 691.5L338.4 689.0L341.6 681.5L352.5 670.1L368.9 656.8L387.2 643.8L403.6 632.9L414.4 625.4L417.0 621.8L410.5 621.7L395.8 623.9L375.3 626.9L352.9 629.4L332.7 630.2L318.7 628.5L313.5 624.6L318.0 618.8L331.5 612.2L351.1 605.7L372.9 600.0L392.7 595.6L406.3 592.5L411.2 590.0L406.3 587.5L392.7 584.4L372.9 580.0L351.1 574.3L331.5 567.8L318.0 561.2L313.5 555.4L318.7 551.5L332.7 549.8L352.9 550.6L375.3 553.1L395.8 556.1L410.5 558.3L417.0 558.2L414.4 554.6L403.6 547.1L387.2 536.2L368.9 523.2L352.5 509.9L341.6 498.5L338.4 491.0L343.7 488.5L356.6 491.4L374.7 499.0L394.7 509.2L413.1 519.7L426.8 527.5L433.8 530.4L433.5 526.9L426.8 516.8L415.7 501.2L403.3 482.6L392.4 464.1L385.7 448.9L384.8 439.8L389.9 438.5L400.4 445.1L414.3 458.0L429.3 474.6L443.0 491.3L453.4 504.2L459.4 510.3L460.9 508.0L458.6 497.0L454.1 479.2L449.1 457.5L445.5 436.0L444.4 418.7L446.4 408.9L451.3 408.4L458.5 417.3L466.8 433.7L474.9 454.4L481.8 475.1L487.0 491.6L490.6 500.6L492.9 500.1L494.8 490.1L496.9 472.5L500.0 450.7L504.2 429.1L509.3 411.8L514.8 402.3L519.7 402.4L523.4 412.2L525.4 429.8L525.6 451.8L524.7 473.9L523.6 491.9L523.4 502.6L525.5 504.1L530.4 496.4L538.4 481.4L549.0 462.5L560.7 443.5L571.9 428.5L580.8 420.6L585.8 421.5L586.3 431.1L582.2 447.5L574.8 467.9L566.0 488.4L558.1 505.4L553.6 516.2L554.3 519.2L561.0 514.7L573.3 504.2L589.6 490.4L607.5 476.8L623.7 466.3L635.5 461.4L640.8 463.2L638.6 471.6L629.6 485.1L615.7 501.2L600.0 517.3L586.1 530.8L577.3 539.8L575.8 543.5L582.7 542.2L597.3 537.2L617.0 530.4L638.6 523.9L658.1 519.6L671.7 518.9L677.1 522.0L673.1 528.7L660.6 537.8L642.3 547.8L621.9 557.3L603.5 565.1L591.1 570.6L587.3 573.8L593.1 575.2L607.6 575.8L628.1 576.5L650.6 578.1L670.8 581.0L684.7 585.2L689.7 590.0"/><path id="gs" d="M852.0 1082.0L848.0 1084.2L838.2 1085.4L827.2 1085.7L820.6 1085.7L821.4 1086.9L828.9 1090.0L839.1 1094.7L846.6 1099.5L847.6 1102.3L841.5 1102.0L831.2 1098.8L821.7 1095.0L817.1 1093.3L818.9 1095.8L825.5 1102.4L832.9 1110.7L836.9 1117.2L835.2 1118.9L828.7 1114.9L820.4 1107.5L813.8 1100.9L811.3 1099.1L813.0 1103.7L816.8 1113.2L820.0 1123.5L820.3 1129.6L817.5 1128.6L812.7 1121.1L808.0 1110.9L804.9 1103.4L803.7 1102.6L803.7 1109.2L803.4 1120.2L802.2 1130.0L800.0 1134.0L797.8 1130.0L796.6 1120.2L796.3 1109.2L796.3 1102.6L795.1 1103.4L792.0 1110.9L787.3 1121.1L782.5 1128.6L779.7 1129.6L780.0 1123.5L783.2 1113.2L787.0 1103.7L788.7 1099.1L786.2 1100.9L779.6 1107.5L771.3 1114.9L764.8 1118.9L763.1 1117.2L767.1 1110.7L774.5 1102.4L781.1 1095.8L782.9 1093.3L778.3 1095.0L768.8 1098.8L758.5 1102.0L752.4 1102.3L753.4 1099.5L760.9 1094.7L771.1 1090.0L778.6 1086.9L779.4 1085.7L772.8 1085.7L761.8 1085.4L752.0 1084.2L748.0 1082.0L752.0 1079.8L761.8 1078.6L772.8 1078.3L779.4 1078.3L778.6 1077.1L771.1 1074.0L760.9 1069.3L753.4 1064.5L752.4 1061.7L758.5 1062.0L768.8 1065.2L778.3 1069.0L782.9 1070.7L781.1 1068.2L774.5 1061.6L767.1 1053.3L763.1 1046.8L764.8 1045.1L771.3 1049.1L779.6 1056.5L786.2 1063.1L788.7 1064.9L787.0 1060.3L783.2 1050.8L780.0 1040.5L779.7 1034.4L782.5 1035.4L787.3 1042.9L792.0 1053.1L795.1 1060.6L796.3 1061.4L796.3 1054.8L796.6 1043.8L797.8 1034.0L800.0 1030.0L802.2 1034.0L803.4 1043.8L803.7 1054.8L803.7 1061.4L804.9 1060.6L808.0 1053.1L812.7 1042.9L817.5 1035.4L820.3 1034.4L820.0 1040.5L816.8 1050.8L813.0 1060.3L811.3 1064.9L813.8 1063.1L820.4 1056.5L828.7 1049.1L835.2 1045.1L836.9 1046.8L832.9 1053.3L825.5 1061.6L818.9 1068.2L817.1 1070.7L821.7 1069.0L831.2 1065.2L841.5 1062.0L847.6 1061.7L846.6 1064.5L839.1 1069.3L828.9 1074.0L821.4 1077.1L820.6 1078.3L827.2 1078.3L838.2 1078.6L848.0 1079.8L852.0 1082.0"/><path id="sealArc" d="M742 1082 A58 58 0 0 1 858 1082" fill="none"/></defs><rect width="1000" height="1250" fill="url(#plate)"/><rect width="1000" height="1250" fill="url(#hatch)"/><ellipse cx="500.0" cy="590" rx="436" ry="426" fill="url(#bloom)"/><g stroke="#89cbfd" fill="none" stroke-width="2.4" opacity="0.55"><use href="#g1" transform="rotate(34.00 500.0 590)" opacity="0.34"/><use href="#g1" transform="rotate(49.00 500.0 590)" opacity="0.34"/><use href="#g1" transform="rotate(64.00 500.0 590)" opacity="0.34"/><use href="#g1" transform="rotate(79.00 500.0 590)" opacity="0.34"/><use href="#g1" transform="rotate(94.00 500.0 590)" opacity="0.34"/><use href="#g1" transform="rotate(109.00 500.0 590)" opacity="0.34"/><use href="#g1" transform="rotate(124.00 500.0 590)" opacity="0.34"/><use href="#g1" transform="rotate(139.00 500.0 590)" opacity="0.34"/><use href="#g1" transform="rotate(154.00 500.0 590)" opacity="0.34"/><use href="#g1" transform="rotate(169.00 500.0 590)" opacity="0.34"/><use href="#g1" transform="rotate(184.00 500.0 590)" opacity="0.34"/><use href="#g1" transform="rotate(199.00 500.0 590)" opacity="0.34"/><use href="#g1" transform="rotate(214.00 500.0 590)" opacity="0.34"/><use href="#g1" transform="rotate(229.00 500.0 590)" opacity="0.34"/><use href="#g1" transform="rotate(244.00 500.0 590)" opacity="0.34"/><use href="#g1" transform="rotate(259.00 500.0 590)" opacity="0.34"/><use href="#g1" transform="rotate(274.00 500.0 590)" opacity="0.34"/><use href="#g1" transform="rotate(289.00 500.0 590)" opacity="0.34"/><use href="#g1" transform="rotate(304.00 500.0 590)" opacity="0.34"/><use href="#g1" transform="rotate(319.00 500.0 590)" opacity="0.34"/><use href="#g1" transform="rotate(334.00 500.0 590)" opacity="0.34"/><use href="#g1" transform="rotate(349.00 500.0 590)" opacity="0.34"/><use href="#g1" transform="rotate(364.00 500.0 590)" opacity="0.34"/><use href="#g1" transform="rotate(379.00 500.0 590)" opacity="0.34"/></g><g stroke="#93c5fd" fill="none" stroke-width="1.8" opacity="0.42"><use href="#g2" transform="rotate(-34.00 500.0 590)" opacity="0.34"/><use href="#g2" transform="rotate(-11.50 500.0 590)" opacity="0.34"/><use href="#g2" transform="rotate(11.00 500.0 590)" opacity="0.34"/><use href="#g2" transform="rotate(33.50 500.0 590)" opacity="0.34"/><use href="#g2" transform="rotate(56.00 500.0 590)" opacity="0.34"/><use href="#g2" transform="rotate(78.50 500.0 590)" opacity="0.34"/><use href="#g2" transform="rotate(101.00 500.0 590)" opacity="0.34"/><use href="#g2" transform="rotate(123.50 500.0 590)" opacity="0.34"/><use href="#g2" transform="rotate(146.00 500.0 590)" opacity="0.34"/><use href="#g2" transform="rotate(168.50 500.0 590)" opacity="0.34"/><use href="#g2" transform="rotate(191.00 500.0 590)" opacity="0.34"/><use href="#g2" transform="rotate(213.50 500.0 590)" opacity="0.34"/><use href="#g2" transform="rotate(236.00 500.0 590)" opacity="0.34"/><use href="#g2" transform="rotate(258.50 500.0 590)" opacity="0.34"/><use href="#g2" transform="rotate(281.00 500.0 590)" opacity="0.34"/><use href="#g2" transform="rotate(303.50 500.0 590)" opacity="0.34"/></g><rect x="54" y="54" width="892" height="1142" fill="none" stroke="#89cbfd" stroke-opacity="0.75" stroke-width="3.5"/><rect x="65" y="65" width="870" height="1120" fill="none" stroke="#89cbfd" stroke-opacity="0.32" stroke-width="1.2"/><circle cx="65" cy="65" r="17" fill="none" stroke="#89cbfd" stroke-opacity="0.5" stroke-width="1.6"/><circle cx="65" cy="65" r="7" fill="#89cbfd" fill-opacity="0.55"/><circle cx="935" cy="65" r="17" fill="none" stroke="#89cbfd" stroke-opacity="0.5" stroke-width="1.6"/><circle cx="935" cy="65" r="7" fill="#89cbfd" fill-opacity="0.55"/><circle cx="65" cy="1185" r="17" fill="none" stroke="#89cbfd" stroke-opacity="0.5" stroke-width="1.6"/><circle cx="65" cy="1185" r="7" fill="#89cbfd" fill-opacity="0.55"/><circle cx="935" cy="1185" r="17" fill="none" stroke="#89cbfd" stroke-opacity="0.5" stroke-width="1.6"/><circle cx="935" cy="1185" r="7" fill="#89cbfd" fill-opacity="0.55"/><text x="96" y="118" font-family="'SFMono-Regular',Menlo,Consolas,'DejaVu Sans Mono',monospace" font-size="16" font-weight="bold" letter-spacing="7.0" fill="#efe9dd" text-anchor="start">SUWAPPU</text><text x="500.0" y="118" font-family="'SFMono-Regular',Menlo,Consolas,'DejaVu Sans Mono',monospace" font-size="11.5" font-weight="normal" letter-spacing="4.0" fill="#a6d8fe" text-anchor="middle">CERTIFICATE OF POSITION</text><text x="904" y="118" font-family="Georgia,'Times New Roman','Liberation Serif',serif" font-size="18" fill="#89cbfd" text-anchor="end" letter-spacing="1.4">No. 0318</text><line x1="96" y1="140" x2="904" y2="140" stroke="#89cbfd" stroke-opacity="0.45" stroke-width="1.2"/><text x="96" y="290" font-family="Georgia,'Times New Roman','Liberation Serif',serif" font-size="150" font-weight="bold" fill="#f6f1e6" letter-spacing="-3">SPCX</text><text x="96" y="330" font-family="'SFMono-Regular',Menlo,Consolas,'DejaVu Sans Mono',monospace" font-size="14.5" font-weight="normal" letter-spacing="3.2" fill="#b9d9fe" text-anchor="start">SPACE EXPLORATION TECHNOLOGIES CORP.…</text><text x="96" y="360" font-family="'SFMono-Regular',Menlo,Consolas,'DejaVu Sans Mono',monospace" font-size="12" font-weight="normal" letter-spacing="3.4" fill="#93c5fd" text-anchor="start">SPACE &amp; DEFENSE</text><text x="904" y="290" font-family="Georgia,'Times New Roman','Liberation Serif',serif" font-size="30" fill="#7dd3fc" text-anchor="end" font-style="italic">Founder</text><ellipse cx="500.0" cy="590" rx="269" ry="153" fill="url(#clear)"/><text x="500.0" y="634" font-family="Georgia,'Times New Roman','Liberation Serif',serif" font-size="120" font-weight="bold" fill="#7dd3fc" text-anchor="middle" letter-spacing="-3">+257.2%</text><text x="500.0" y="674" font-family="'SFMono-Regular',Menlo,Consolas,'DejaVu Sans Mono',monospace" font-size="12" font-weight="normal" letter-spacing="6.0" fill="#97dcfd" text-anchor="middle">SINCE ENTRY</text><line x1="96" y1="952" x2="904" y2="952" stroke="#4b708b" stroke-width="1.4"/><line x1="136.4" y1="947" x2="136.4" y2="957" stroke="#527a98" stroke-width="1.1"/><line x1="176.8" y1="947" x2="176.8" y2="957" stroke="#527a98" stroke-width="1.1"/><line x1="217.2" y1="947" x2="217.2" y2="957" stroke="#527a98" stroke-width="1.1"/><line x1="257.6" y1="947" x2="257.6" y2="957" stroke="#527a98" stroke-width="1.1"/><line x1="298.0" y1="942" x2="298.0" y2="962" stroke="#527a98" stroke-width="1.1"/><line x1="338.4" y1="947" x2="338.4" y2="957" stroke="#527a98" stroke-width="1.1"/><line x1="378.8" y1="947" x2="378.8" y2="957" stroke="#527a98" stroke-width="1.1"/><line x1="419.2" y1="947" x2="419.2" y2="957" stroke="#527a98" stroke-width="1.1"/><line x1="459.6" y1="947" x2="459.6" y2="957" stroke="#527a98" stroke-width="1.1"/><line x1="500.0" y1="942" x2="500.0" y2="962" stroke="#527a98" stroke-width="1.1"/><line x1="540.4" y1="947" x2="540.4" y2="957" stroke="#527a98" stroke-width="1.1"/><line x1="580.8" y1="947" x2="580.8" y2="957" stroke="#527a98" stroke-width="1.1"/><line x1="621.2" y1="947" x2="621.2" y2="957" stroke="#527a98" stroke-width="1.1"/><line x1="661.6" y1="947" x2="661.6" y2="957" stroke="#527a98" stroke-width="1.1"/><line x1="702.0" y1="942" x2="702.0" y2="962" stroke="#527a98" stroke-width="1.1"/><line x1="742.4" y1="947" x2="742.4" y2="957" stroke="#527a98" stroke-width="1.1"/><line x1="782.8" y1="947" x2="782.8" y2="957" stroke="#527a98" stroke-width="1.1"/><line x1="823.2" y1="947" x2="823.2" y2="957" stroke="#527a98" stroke-width="1.1"/><line x1="863.6" y1="947" x2="863.6" y2="957" stroke="#527a98" stroke-width="1.1"/><rect x="96" y="935" width="808" height="34" fill="url(#span)"/><line x1="96" y1="926" x2="96" y2="978" stroke="#a49c8d" stroke-width="3"/><text x="96" y="914" font-family="'SFMono-Regular',Menlo,Consolas,'DejaVu Sans Mono',monospace" font-size="11" font-weight="normal" letter-spacing="4.0" fill="#8f8778" text-anchor="start">BASIS</text><text x="96" y="1012" font-family="Georgia,'Times New Roman','Liberation Serif',serif" font-size="34" fill="#a49c8d" text-anchor="start">$38.34</text><line x1="904" y1="926" x2="904" y2="978" stroke="#7dd3fc" stroke-width="3"/><text x="904" y="914" font-family="'SFMono-Regular',Menlo,Consolas,'DejaVu Sans Mono',monospace" font-size="11" font-weight="normal" letter-spacing="4.0" fill="#8f8778" text-anchor="end">NOW</text><text x="904" y="1012" font-family="Georgia,'Times New Roman','Liberation Serif',serif" font-size="34" fill="#7dd3fc" text-anchor="end">$136.94</text><circle cx="800" cy="1082" r="72" fill="#05050a" fill-opacity="0.7"/><circle cx="800" cy="1082" r="72" fill="none" stroke="#7dd3fc" stroke-opacity="0.7" stroke-width="2.6"/><circle cx="800" cy="1082" r="62" fill="none" stroke="#7dd3fc" stroke-opacity="0.3" stroke-width="1"/><g stroke="#7dd3fc" fill="none" stroke-width="1" opacity="0.32"><use href="#gs" transform="rotate(34.0 800 1082)"/><use href="#gs" transform="rotate(106.0 800 1082)"/><use href="#gs" transform="rotate(178.0 800 1082)"/><use href="#gs" transform="rotate(250.0 800 1082)"/><use href="#gs" transform="rotate(322.0 800 1082)"/></g><text font-family="'SFMono-Regular',Menlo,Consolas,'DejaVu Sans Mono',monospace" font-size="11" fill="#7dd3fc" fill-opacity="0.9" letter-spacing="3.4"><textPath href="#sealArc" startOffset="50%" text-anchor="middle">MULTIPLE</textPath></text><text x="800" y="1094" font-family="Georgia,'Times New Roman','Liberation Serif',serif" font-size="30" font-weight="bold" fill="#f2ece0" text-anchor="middle">SPCX</text><text x="96" y="1072" font-family="Georgia,'Times New Roman','Liberation Serif',serif" font-size="30" fill="#e6dfd1">−40 bps on every swap</text><text x="96" y="1104" font-family="'SFMono-Regular',Menlo,Consolas,'DejaVu Sans Mono',monospace" font-size="11.5" font-weight="normal" letter-spacing="3.0" fill="#8f8778" text-anchor="start">STRUCK 03 AUG 2026 · RANK 318 OF 10,000</text><text x="96" y="1170" font-family="'SFMono-Regular',Menlo,Consolas,'DejaVu Sans Mono',monospace" font-size="9.5" font-weight="normal" letter-spacing="2.2" fill="#5f5a51" text-anchor="start">COLLECTIBLE · NOT EQUITY · NOT A SECURITY · PAYS NOTHING · NO CLAIM ON ANY ISSUER</text><text x="904" y="1170" font-family="'SFMono-Regular',Menlo,Consolas,'DejaVu Sans Mono',monospace" font-size="9.5" font-weight="normal" letter-spacing="2.2" fill="#5f5a51" text-anchor="end">4663 · 2</text></svg>