<svg xmlns="http://www.w3.org/2000/svg" viewBox="0 0 1000 1250" width="1000" height="1250"><defs><linearGradient id="bg" x1="0" y1="0" x2="0.4" y2="1"><stop offset="0" stop-color="#0a0d16"/><stop offset="1" stop-color="#070910"/></linearGradient><linearGradient id="card" x1="0" y1="0" x2="0.3" y2="1"><stop offset="0" stop-color="#121724"/><stop offset="1" stop-color="#0d111b"/></linearGradient><linearGradient id="edge" x1="0" y1="0" x2="1" y2="1"><stop offset="0" stop-color="#5eead4" stop-opacity="0.85"/><stop offset="0.5" stop-color="#5eead4" stop-opacity="0.45"/><stop offset="1" stop-color="#5eead4" stop-opacity="0.85"/></linearGradient><pattern id="grid" width="26" height="26" patternUnits="userSpaceOnUse"><path d="M26 0H0V26" fill="none" stroke="#ffffff" stroke-opacity="0.028"/></pattern></defs><rect width="1000" height="1250" fill="url(#bg)"/><rect x="44" y="44" width="912" height="1162" rx="22" fill="url(#card)" stroke="url(#edge)" stroke-width="2"/><rect x="45" y="45" width="910" height="1160" rx="21" fill="url(#grid)"/><text x="82" y="96" font-family="monospace" font-size="19" font-weight="bold" letter-spacing="4" fill="#e8ecf4">SUWAPPU</text><text x="210" y="96" font-family="monospace" font-size="19" letter-spacing="4" fill="#5eead4">FILL</text><text x="918" y="96" text-anchor="end" font-family="monospace" font-size="17" fill="#6b7488">No. 00001 / 10000</text><line x1="82" y1="112" x2="918" y2="112" stroke="#ffffff" stroke-opacity="0.12"/><text x="82" y="188" font-family="monospace" font-size="92" font-weight="bold" letter-spacing="2" fill="#f2f5fa">INTU</text><rect x="786" y="134" width="132" height="54" rx="8" fill="#3ddc97" fill-opacity="0.14" stroke="#3ddc97" stroke-opacity="0.55"/><text x="852" y="171" text-anchor="middle" font-family="monospace" font-size="27" font-weight="bold" fill="#3ddc97">BUY</text><text x="82" y="222" font-family="monospace" font-size="21" fill="#98a2b8">Intuit</text><rect x="82" y="235" width="134" height="30" rx="15" fill="#5eead4" fill-opacity="0.13" stroke="#5eead4" stroke-opacity="0.4"/><text x="149" y="256" text-anchor="middle" font-family="monospace" font-size="15" fill="#5eead4">Software</text><text x="918" y="256" text-anchor="end" font-family="monospace" font-size="13" fill="#565e70">0x56d23beE…28e460e9 · 18d</text><rect x="82" y="286" width="836" height="316" rx="10" fill="#0a0e17" stroke="#ffffff" stroke-opacity="0.07"/><line x1="98" y1="306.0" x2="902" y2="306.0" stroke="#ffffff" stroke-opacity="0.055" stroke-width="1"/><line x1="98" y1="359.0" x2="902" y2="359.0" stroke="#ffffff" stroke-opacity="0.055" stroke-width="1"/><line x1="98" y1="412.0" x2="902" y2="412.0" stroke="#ffffff" stroke-opacity="0.055" stroke-width="1"/><line x1="98" y1="465.0" x2="902" y2="465.0" stroke="#ffffff" stroke-opacity="0.055" stroke-width="1"/><line x1="98" y1="518.0" x2="902" y2="518.0" stroke="#ffffff" stroke-opacity="0.055" stroke-width="1"/><polyline points="105.2,488.8 119.5,485.3 133.9,483.3 148.2,474.4 162.6,473.2 177.0,486.3 191.3,486.3 205.7,497.3 220.0,506.3 234.4,500.1 248.8,491.6 263.1,487.9 277.5,496.6 291.8,509.2 306.2,501.1 320.5,496.8 334.9,489.7 349.2,490.0 363.6,491.2 378.0,478.0 392.3,471.2 406.7,458.1 421.0,445.4 435.4,438.0 449.8,426.3 464.1,425.7 478.5,419.1 492.8,422.0 507.2,434.8 521.5,429.6 535.9,447.8 550.2,444.5 564.6,428.8 579.0,423.7 593.3,425.6 607.7,418.5 622.0,413.1 636.4,399.0 650.8,387.8 665.1,401.6 679.5,403.0 693.8,394.2 708.2,393.0 722.5,386.0 736.9,375.9 751.2,360.7 765.6,363.1 780.0,359.1 794.3,326.8 808.7,307.7 823.0,333.2 837.4,344.3 851.8,349.5 866.1,331.3 880.5,323.7 894.8,309.4" fill="none" stroke="#3ddc97" stroke-width="3" stroke-linejoin="round" stroke-linecap="round"/><polygon points="98.0,518.0 105.2,488.8 119.5,485.3 133.9,483.3 148.2,474.4 162.6,473.2 177.0,486.3 191.3,486.3 205.7,497.3 220.0,506.3 234.4,500.1 248.8,491.6 263.1,487.9 277.5,496.6 291.8,509.2 306.2,501.1 320.5,496.8 334.9,489.7 349.2,490.0 363.6,491.2 378.0,478.0 392.3,471.2 406.7,458.1 421.0,445.4 435.4,438.0 449.8,426.3 464.1,425.7 478.5,419.1 492.8,422.0 507.2,434.8 521.5,429.6 535.9,447.8 550.2,444.5 564.6,428.8 579.0,423.7 593.3,425.6 607.7,418.5 622.0,413.1 636.4,399.0 650.8,387.8 665.1,401.6 679.5,403.0 693.8,394.2 708.2,393.0 722.5,386.0 736.9,375.9 751.2,360.7 765.6,363.1 780.0,359.1 794.3,326.8 808.7,307.7 823.0,333.2 837.4,344.3 851.8,349.5 866.1,331.3 880.5,323.7 894.8,309.4 902.0,518.0" fill="#3ddc97" fill-opacity="0.10"/><rect x="101.0" y="570.5" width="8.3" height="15.5" fill="#ff6b6b" fill-opacity="0.30"/><rect x="115.4" y="553.3" width="8.3" height="32.7" fill="#3ddc97" fill-opacity="0.30"/><rect x="129.7" y="564.8" width="8.3" height="21.2" fill="#3ddc97" fill-opacity="0.30"/><rect x="144.1" y="563.1" width="8.3" height="22.9" fill="#3ddc97" fill-opacity="0.30"/><rect x="158.4" y="574.7" width="8.3" height="11.3" fill="#3ddc97" fill-opacity="0.30"/><rect x="172.8" y="578.3" width="8.3" height="7.7" fill="#ff6b6b" fill-opacity="0.30"/><rect x="187.2" y="580.8" width="8.3" height="5.2" fill="#3ddc97" fill-opacity="0.30"/><rect x="201.5" y="565.6" width="8.3" height="20.4" fill="#ff6b6b" fill-opacity="0.30"/><rect x="215.9" y="563.4" width="8.3" height="22.6" fill="#ff6b6b" fill-opacity="0.30"/><rect x="230.2" y="564.5" width="8.3" height="21.5" fill="#3ddc97" fill-opacity="0.30"/><rect x="244.6" y="567.4" width="8.3" height="18.6" fill="#3ddc97" fill-opacity="0.30"/><rect x="258.9" y="573.4" width="8.3" height="12.6" fill="#3ddc97" fill-opacity="0.30"/><rect x="273.3" y="551.2" width="8.3" height="34.8" fill="#ff6b6b" fill-opacity="0.30"/><rect x="287.7" y="558.0" width="8.3" height="28.0" fill="#ff6b6b" fill-opacity="0.30"/><rect x="302.0" y="578.9" width="8.3" height="7.1" fill="#3ddc97" fill-opacity="0.30"/><rect x="316.4" y="551.2" width="8.3" height="34.8" fill="#3ddc97" fill-opacity="0.30"/><rect x="330.7" y="569.2" width="8.3" height="16.8" fill="#3ddc97" fill-opacity="0.30"/><rect x="345.1" y="571.3" width="8.3" height="14.7" fill="#ff6b6b" fill-opacity="0.30"/><rect x="359.4" y="540.6" width="8.3" height="45.4" fill="#ff6b6b" fill-opacity="0.30"/><rect x="373.8" y="571.5" width="8.3" height="14.5" fill="#3ddc97" fill-opacity="0.30"/><rect x="388.2" y="565.2" width="8.3" height="20.8" fill="#3ddc97" fill-opacity="0.30"/><rect x="402.5" y="583.4" width="8.3" height="2.6" fill="#3ddc97" fill-opacity="0.30"/><rect x="416.9" y="569.9" width="8.3" height="16.1" fill="#3ddc97" fill-opacity="0.30"/><rect x="431.2" y="558.1" width="8.3" height="27.9" fill="#3ddc97" fill-opacity="0.30"/><rect x="445.6" y="573.4" width="8.3" height="12.6" fill="#3ddc97" fill-opacity="0.30"/><rect x="459.9" y="574.7" width="8.3" height="11.3" fill="#3ddc97" fill-opacity="0.30"/><rect x="474.3" y="561.5" width="8.3" height="24.5" fill="#3ddc97" fill-opacity="0.30"/><rect x="488.7" y="577.2" width="8.3" height="8.8" fill="#ff6b6b" fill-opacity="0.30"/><rect x="503.0" y="562.6" width="8.3" height="23.4" fill="#ff6b6b" fill-opacity="0.30"/><rect x="517.4" y="561.7" width="8.3" height="24.3" fill="#3ddc97" fill-opacity="0.30"/><rect x="531.7" y="556.5" width="8.3" height="29.5" fill="#ff6b6b" fill-opacity="0.30"/><rect x="546.1" y="574.2" width="8.3" height="11.8" fill="#3ddc97" fill-opacity="0.30"/><rect x="560.4" y="580.5" width="8.3" height="5.5" fill="#3ddc97" fill-opacity="0.30"/><rect x="574.8" y="582.0" width="8.3" height="4.0" fill="#3ddc97" fill-opacity="0.30"/><rect x="589.2" y="556.6" width="8.3" height="29.4" fill="#ff6b6b" fill-opacity="0.30"/><rect x="603.5" y="559.1" width="8.3" height="26.9" fill="#3ddc97" fill-opacity="0.30"/><rect x="617.9" y="578.8" width="8.3" height="7.2" fill="#3ddc97" fill-opacity="0.30"/><rect x="632.2" y="571.9" width="8.3" height="14.1" fill="#3ddc97" fill-opacity="0.30"/><rect x="646.6" y="573.6" width="8.3" height="12.4" fill="#3ddc97" fill-opacity="0.30"/><rect x="660.9" y="561.8" width="8.3" height="24.2" fill="#ff6b6b" fill-opacity="0.30"/><rect x="675.3" y="532.0" width="8.3" height="54.0" fill="#ff6b6b" fill-opacity="0.30"/><rect x="689.7" y="581.2" width="8.3" height="4.8" fill="#3ddc97" fill-opacity="0.30"/><rect x="704.0" y="582.0" width="8.3" height="4.0" fill="#3ddc97" fill-opacity="0.30"/><rect x="718.4" y="560.9" width="8.3" height="25.1" fill="#3ddc97" fill-opacity="0.30"/><rect x="732.7" y="567.9" width="8.3" height="18.1" fill="#3ddc97" fill-opacity="0.30"/><rect x="747.1" y="579.9" width="8.3" height="6.1" fill="#3ddc97" fill-opacity="0.30"/><rect x="761.4" y="574.0" width="8.3" height="12.0" fill="#ff6b6b" fill-opacity="0.30"/><rect x="775.8" y="580.9" width="8.3" height="5.1" fill="#3ddc97" fill-opacity="0.30"/><rect x="790.2" y="575.9" width="8.3" height="10.1" fill="#3ddc97" fill-opacity="0.30"/><rect x="804.5" y="569.0" width="8.3" height="17.0" fill="#3ddc97" fill-opacity="0.30"/><rect x="818.9" y="577.7" width="8.3" height="8.3" fill="#ff6b6b" fill-opacity="0.30"/><rect x="833.2" y="564.0" width="8.3" height="22.0" fill="#ff6b6b" fill-opacity="0.30"/><rect x="847.6" y="581.2" width="8.3" height="4.8" fill="#ff6b6b" fill-opacity="0.30"/><rect x="861.9" y="581.3" width="8.3" height="4.7" fill="#3ddc97" fill-opacity="0.30"/><rect x="876.3" y="583.1" width="8.3" height="2.9" fill="#3ddc97" fill-opacity="0.30"/><rect x="890.7" y="572.1" width="8.3" height="13.9" fill="#3ddc97" fill-opacity="0.30"/><line x1="98" y1="309.4" x2="902" y2="309.4" stroke="#ffffff" stroke-opacity="0.30" stroke-width="1" stroke-dasharray="4 4"/><text x="98" y="276" font-family="monospace" font-size="13" letter-spacing="1.5" fill="#6b7488">LINE · 56 PERIODS</text><text x="902" y="276" text-anchor="end" font-family="monospace" font-size="13" fill="#6b7488">H 399.12  L 256.57</text><text x="82" y="664" font-family="monospace" font-size="14" letter-spacing="1.6" fill="#6b7488">QUANTITY</text><text x="82" y="695" font-family="monospace" font-size="25" font-weight="bold" fill="#e8ecf4">317.022</text><text x="360" y="664" font-family="monospace" font-size="14" letter-spacing="1.6" fill="#6b7488">AVG PRICE</text><text x="360" y="695" font-family="monospace" font-size="25" font-weight="bold" fill="#e8ecf4">396.83</text><text x="639" y="664" font-family="monospace" font-size="14" letter-spacing="1.6" fill="#6b7488">NOTIONAL</text><text x="639" y="695" font-family="monospace" font-size="25" font-weight="bold" fill="#e8ecf4">125,805</text><text x="82" y="742" font-family="monospace" font-size="14" letter-spacing="1.6" fill="#6b7488">SETTLEMENT</text><text x="82" y="773" font-family="monospace" font-size="25" font-weight="bold" fill="#fcd34d">USDG</text><text x="360" y="742" font-family="monospace" font-size="14" letter-spacing="1.6" fill="#6b7488">SESSION</text><text x="360" y="773" font-family="monospace" font-size="25" font-weight="bold" fill="#e8ecf4">After Hours</text><text x="639" y="742" font-family="monospace" font-size="14" letter-spacing="1.6" fill="#6b7488">ORDER TYPE</text><text x="639" y="773" font-family="monospace" font-size="25" font-weight="bold" fill="#e8ecf4">Market</text><text x="82" y="820" font-family="monospace" font-size="14" letter-spacing="1.6" fill="#6b7488">ROUTE</text><text x="82" y="851" font-family="monospace" font-size="25" font-weight="bold" fill="#e8ecf4">Li.Fi Diamond</text><text x="360" y="820" font-family="monospace" font-size="14" letter-spacing="1.6" fill="#6b7488">FILL QUALITY</text><text x="360" y="851" font-family="monospace" font-size="25" font-weight="bold" fill="#e8ecf4">Partial Fill</text><text x="639" y="820" font-family="monospace" font-size="14" letter-spacing="1.6" fill="#6b7488">CHAIN</text><text x="639" y="851" font-family="monospace" font-size="25" font-weight="bold" fill="#e8ecf4">4663</text><rect x="82" y="904" width="836" height="76" rx="10" fill="#5eead4" fill-opacity="0.08" stroke="#5eead4" stroke-opacity="0.42"/><text x="104" y="936" font-family="monospace" font-size="14" letter-spacing="2" fill="#6b7488">DESK</text><text x="104" y="964" font-family="monospace" font-size="27" font-weight="bold" fill="#5eead4">DESK</text><text x="896" y="936" text-anchor="end" font-family="monospace" font-size="14" letter-spacing="1.4" fill="#6b7488">SWAP FEE / TICKER XP</text><text x="896" y="964" text-anchor="end" font-family="monospace" font-size="24" font-weight="bold" fill="#e8ecf4">−10 bps · +5% XP</text><line x1="54" y1="1004" x2="946" y2="1004" stroke="#ffffff" stroke-opacity="0.16" stroke-width="2" stroke-dasharray="2 9"/><circle cx="44" cy="1004" r="9" fill="url(#bg)"/><circle cx="956" cy="1004" r="9" fill="url(#bg)"/><rect x="82.0" y="1029.6" width="7.2" height="48.4" fill="#ffffff" fill-opacity="0.48"/><rect x="95.1" y="1053.0" width="7.2" height="25.0" fill="#ffffff" fill-opacity="0.27"/><rect x="108.1" y="1060.8" width="7.2" height="17.2" fill="#ffffff" fill-opacity="0.21"/><rect x="121.2" y="1027.0" width="7.2" height="51.0" fill="#ffffff" fill-opacity="0.50"/><rect x="134.2" y="1060.8" width="7.2" height="17.2" fill="#ffffff" fill-opacity="0.21"/><rect x="147.3" y="1058.2" width="7.2" height="19.8" fill="#ffffff" fill-opacity="0.23"/><rect x="160.4" y="1047.8" width="7.2" height="30.2" fill="#ffffff" fill-opacity="0.32"/><rect x="173.4" y="1027.0" width="7.2" height="51.0" fill="#ffffff" fill-opacity="0.50"/><rect x="186.5" y="1042.6" width="7.2" height="35.4" fill="#ffffff" fill-opacity="0.36"/><rect x="199.6" y="1066.0" width="7.2" height="12.0" fill="#ffffff" fill-opacity="0.16"/><rect x="212.6" y="1034.8" width="7.2" height="43.2" fill="#ffffff" fill-opacity="0.43"/><rect x="225.7" y="1055.6" width="7.2" height="22.4" fill="#ffffff" fill-opacity="0.25"/><rect x="238.8" y="1063.4" width="7.2" height="14.6" fill="#ffffff" fill-opacity="0.18"/><rect x="251.8" y="1034.8" width="7.2" height="43.2" fill="#ffffff" fill-opacity="0.43"/><rect x="264.9" y="1040.0" width="7.2" height="38.0" fill="#ffffff" fill-opacity="0.39"/><rect x="277.9" y="1053.0" width="7.2" height="25.0" fill="#ffffff" fill-opacity="0.27"/><rect x="291.0" y="1066.0" width="7.2" height="12.0" fill="#ffffff" fill-opacity="0.16"/><rect x="304.1" y="1050.4" width="7.2" height="27.6" fill="#ffffff" fill-opacity="0.30"/><rect x="317.1" y="1053.0" width="7.2" height="25.0" fill="#ffffff" fill-opacity="0.27"/><rect x="330.2" y="1040.0" width="7.2" height="38.0" fill="#ffffff" fill-opacity="0.39"/><rect x="343.2" y="1040.0" width="7.2" height="38.0" fill="#ffffff" fill-opacity="0.39"/><rect x="356.3" y="1032.2" width="7.2" height="45.8" fill="#ffffff" fill-opacity="0.45"/><rect x="369.4" y="1027.0" width="7.2" height="51.0" fill="#ffffff" fill-opacity="0.50"/><rect x="382.4" y="1037.4" width="7.2" height="40.6" fill="#ffffff" fill-opacity="0.41"/><rect x="395.5" y="1042.6" width="7.2" height="35.4" fill="#ffffff" fill-opacity="0.36"/><rect x="408.6" y="1034.8" width="7.2" height="43.2" fill="#ffffff" fill-opacity="0.43"/><rect x="421.6" y="1037.4" width="7.2" height="40.6" fill="#ffffff" fill-opacity="0.41"/><rect x="434.7" y="1042.6" width="7.2" height="35.4" fill="#ffffff" fill-opacity="0.36"/><rect x="447.8" y="1034.8" width="7.2" height="43.2" fill="#ffffff" fill-opacity="0.43"/><rect x="460.8" y="1063.4" width="7.2" height="14.6" fill="#ffffff" fill-opacity="0.18"/><rect x="473.9" y="1047.8" width="7.2" height="30.2" fill="#ffffff" fill-opacity="0.32"/><rect x="486.9" y="1032.2" width="7.2" height="45.8" fill="#ffffff" fill-opacity="0.45"/><rect x="500.0" y="1037.4" width="7.2" height="40.6" fill="#ffffff" fill-opacity="0.41"/><rect x="513.1" y="1040.0" width="7.2" height="38.0" fill="#ffffff" fill-opacity="0.39"/><rect x="526.1" y="1034.8" width="7.2" height="43.2" fill="#ffffff" fill-opacity="0.43"/><rect x="539.2" y="1045.2" width="7.2" height="32.8" fill="#ffffff" fill-opacity="0.34"/><rect x="552.2" y="1063.4" width="7.2" height="14.6" fill="#ffffff" fill-opacity="0.18"/><rect x="565.3" y="1042.6" width="7.2" height="35.4" fill="#ffffff" fill-opacity="0.36"/><rect x="578.4" y="1050.4" width="7.2" height="27.6" fill="#ffffff" fill-opacity="0.30"/><rect x="591.4" y="1045.2" width="7.2" height="32.8" fill="#ffffff" fill-opacity="0.34"/><rect x="604.5" y="1055.6" width="7.2" height="22.4" fill="#ffffff" fill-opacity="0.25"/><rect x="617.6" y="1060.8" width="7.2" height="17.2" fill="#ffffff" fill-opacity="0.21"/><rect x="630.6" y="1027.0" width="7.2" height="51.0" fill="#ffffff" fill-opacity="0.50"/><rect x="643.7" y="1053.0" width="7.2" height="25.0" fill="#ffffff" fill-opacity="0.27"/><rect x="656.8" y="1047.8" width="7.2" height="30.2" fill="#ffffff" fill-opacity="0.32"/><rect x="669.8" y="1037.4" width="7.2" height="40.6" fill="#ffffff" fill-opacity="0.41"/><rect x="682.9" y="1047.8" width="7.2" height="30.2" fill="#ffffff" fill-opacity="0.32"/><rect x="695.9" y="1040.0" width="7.2" height="38.0" fill="#ffffff" fill-opacity="0.39"/><rect x="709.0" y="1032.2" width="7.2" height="45.8" fill="#ffffff" fill-opacity="0.45"/><rect x="722.1" y="1060.8" width="7.2" height="17.2" fill="#ffffff" fill-opacity="0.21"/><rect x="735.1" y="1058.2" width="7.2" height="19.8" fill="#ffffff" fill-opacity="0.23"/><rect x="748.2" y="1050.4" width="7.2" height="27.6" fill="#ffffff" fill-opacity="0.30"/><rect x="761.2" y="1066.0" width="7.2" height="12.0" fill="#ffffff" fill-opacity="0.16"/><rect x="774.3" y="1066.0" width="7.2" height="12.0" fill="#ffffff" fill-opacity="0.16"/><rect x="787.4" y="1045.2" width="7.2" height="32.8" fill="#ffffff" fill-opacity="0.34"/><rect x="800.4" y="1060.8" width="7.2" height="17.2" fill="#ffffff" fill-opacity="0.21"/><rect x="813.5" y="1032.2" width="7.2" height="45.8" fill="#ffffff" fill-opacity="0.45"/><rect x="826.6" y="1066.0" width="7.2" height="12.0" fill="#ffffff" fill-opacity="0.16"/><rect x="839.6" y="1066.0" width="7.2" height="12.0" fill="#ffffff" fill-opacity="0.16"/><rect x="852.7" y="1029.6" width="7.2" height="48.4" fill="#ffffff" fill-opacity="0.48"/><rect x="865.8" y="1029.6" width="7.2" height="48.4" fill="#ffffff" fill-opacity="0.48"/><rect x="878.8" y="1058.2" width="7.2" height="19.8" fill="#ffffff" fill-opacity="0.23"/><rect x="891.9" y="1047.8" width="7.2" height="30.2" fill="#ffffff" fill-opacity="0.32"/><rect x="904.9" y="1027.0" width="7.2" height="51.0" fill="#ffffff" fill-opacity="0.50"/><text x="82" y="1038" font-family="monospace" font-size="14" letter-spacing="1.6" fill="#6b7488">TICKET HASH</text><text x="918" y="1038" text-anchor="end" font-family="monospace" font-size="15" fill="#8b93a6">e52f237f90c41ca5065aadfb</text><line x1="82" y1="1146" x2="918" y2="1146" stroke="#ffffff" stroke-opacity="0.10"/><text x="82" y="1172" font-family="monospace" font-size="12" fill="#4d5566">COLLECTIBLE TICKET · NOT EQUITY · NO SHAREHOLDER RIGHTS · NO CLAIM ON ANY ISSUER</text><text x="918" y="1172" text-anchor="end" font-family="monospace" font-size="12" fill="#4d5566">ROBINHOOD CHAIN</text></svg>